G04 #@! TF.FileFunction,Legend,Bot*
%FSLAX46Y46*%
G04 Gerber Fmt 4.6, Leading zero omitted, Abs format (unit mm)*
G04 Created by KiCad (PCBNEW (2015-04-17 BZR 5609)-product) date Fri 01 Apr 2016 01:29:39 PM CDT*
%MOMM*%
G01*
G04 APERTURE LIST*
%ADD10C,0.100000*%
%ADD11C,0.150000*%
%ADD12C,0.076200*%
G04 APERTURE END LIST*
D10*
D11*
X61555000Y-101977380D02*
X61555000Y-102477380D01*
X60605000Y-102477380D02*
X60605000Y-101977380D01*
X55605000Y-117250000D02*
X55605000Y-116750000D01*
X56555000Y-116750000D02*
X56555000Y-117250000D01*
X56555000Y-101977380D02*
X56555000Y-102477380D01*
X55605000Y-102477380D02*
X55605000Y-101977380D01*
X57110000Y-117250000D02*
X57110000Y-116750000D01*
X58060000Y-116750000D02*
X58060000Y-117250000D01*
X60750000Y-110949720D02*
X61250000Y-110949720D01*
X61250000Y-111899720D02*
X60750000Y-111899720D01*
X58605000Y-117250000D02*
X58605000Y-116750000D01*
X59555000Y-116750000D02*
X59555000Y-117250000D01*
X60605000Y-106679720D02*
X60605000Y-106179720D01*
X61555000Y-106179720D02*
X61555000Y-106679720D01*
X56555000Y-112780000D02*
X56555000Y-113280000D01*
X55605000Y-113280000D02*
X55605000Y-112780000D01*
X55605000Y-106679720D02*
X55605000Y-106179720D01*
X56555000Y-106179720D02*
X56555000Y-106679720D01*
X58060000Y-112780000D02*
X58060000Y-113280000D01*
X57110000Y-113280000D02*
X57110000Y-112780000D01*
X66110000Y-111996240D02*
X65610000Y-111996240D01*
X65610000Y-111046240D02*
X66110000Y-111046240D01*
X59555000Y-112780000D02*
X59555000Y-113280000D01*
X58605000Y-113280000D02*
X58605000Y-112780000D01*
X54105000Y-117250000D02*
X54105000Y-116750000D01*
X55055000Y-116750000D02*
X55055000Y-117250000D01*
X49219040Y-110992600D02*
X49719040Y-110992600D01*
X49719040Y-111942600D02*
X49219040Y-111942600D01*
X49219040Y-109492600D02*
X49719040Y-109492600D01*
X49719040Y-110442600D02*
X49219040Y-110442600D01*
X60105000Y-117250000D02*
X60105000Y-116750000D01*
X61055000Y-116750000D02*
X61055000Y-117250000D01*
X49219040Y-106992600D02*
X49719040Y-106992600D01*
X49719040Y-107942600D02*
X49219040Y-107942600D01*
X53994240Y-110442600D02*
X53494240Y-110442600D01*
X53494240Y-109492600D02*
X53994240Y-109492600D01*
X55055000Y-112780000D02*
X55055000Y-113280000D01*
X54105000Y-113280000D02*
X54105000Y-112780000D01*
X58555000Y-101977380D02*
X58555000Y-102477380D01*
X57605000Y-102477380D02*
X57605000Y-101977380D01*
X61055000Y-112780000D02*
X61055000Y-113280000D01*
X60105000Y-113280000D02*
X60105000Y-112780000D01*
X66110000Y-110695000D02*
X65610000Y-110695000D01*
X65610000Y-109745000D02*
X66110000Y-109745000D01*
X53994240Y-111942600D02*
X53494240Y-111942600D01*
X53494240Y-110992600D02*
X53994240Y-110992600D01*
X53994240Y-107942600D02*
X53494240Y-107942600D01*
X53494240Y-106992600D02*
X53994240Y-106992600D01*
X57615000Y-106679720D02*
X57615000Y-106179720D01*
X58565000Y-106179720D02*
X58565000Y-106679720D01*
X60750000Y-109745000D02*
X61250000Y-109745000D01*
X61250000Y-110695000D02*
X60750000Y-110695000D01*
X67957180Y-102280160D02*
X67257180Y-102280160D01*
X67257180Y-103480160D02*
X67957180Y-103480160D01*
X58948880Y-123689860D02*
X58948880Y-122989860D01*
X57748880Y-122989860D02*
X57748880Y-123689860D01*
X56751780Y-123743200D02*
X56751780Y-123043200D01*
X55551780Y-123043200D02*
X55551780Y-123743200D01*
X49615800Y-102850200D02*
X49615800Y-103550200D01*
X50815800Y-103550200D02*
X50815800Y-102850200D01*
X47101200Y-102850200D02*
X47101200Y-103550200D01*
X48301200Y-103550200D02*
X48301200Y-102850200D01*
X70862000Y-103395000D02*
X70362000Y-103395000D01*
X70362000Y-102345000D02*
X70862000Y-102345000D01*
X53707900Y-123056080D02*
X53707900Y-123556080D01*
X52657900Y-123556080D02*
X52657900Y-123056080D01*
X52493780Y-123048460D02*
X52493780Y-123548460D01*
X51443780Y-123548460D02*
X51443780Y-123048460D01*
X51104400Y-123056080D02*
X51104400Y-123556080D01*
X50054400Y-123556080D02*
X50054400Y-123056080D01*
X51037000Y-117691980D02*
X51037000Y-117191980D01*
X52087000Y-117191980D02*
X52087000Y-117691980D01*
X52540680Y-117699600D02*
X52540680Y-117199600D01*
X53590680Y-117199600D02*
X53590680Y-117699600D01*
X51396920Y-119678640D02*
X51396920Y-120178640D01*
X50446920Y-120178640D02*
X50446920Y-119678640D01*
D12*
X62246329Y-100969233D02*
X62270519Y-100945043D01*
X62294710Y-100872471D01*
X62294710Y-100824090D01*
X62270519Y-100751519D01*
X62222138Y-100703138D01*
X62173757Y-100678947D01*
X62076995Y-100654757D01*
X62004424Y-100654757D01*
X61907662Y-100678947D01*
X61859281Y-100703138D01*
X61810900Y-100751519D01*
X61786710Y-100824090D01*
X61786710Y-100872471D01*
X61810900Y-100945043D01*
X61835090Y-100969233D01*
X62294710Y-101453043D02*
X62294710Y-101162757D01*
X62294710Y-101307900D02*
X61786710Y-101307900D01*
X61859281Y-101259519D01*
X61907662Y-101211138D01*
X61931852Y-101162757D01*
X56287489Y-118434253D02*
X56311679Y-118410063D01*
X56335870Y-118337491D01*
X56335870Y-118289110D01*
X56311679Y-118216539D01*
X56263298Y-118168158D01*
X56214917Y-118143967D01*
X56118155Y-118119777D01*
X56045584Y-118119777D01*
X55948822Y-118143967D01*
X55900441Y-118168158D01*
X55852060Y-118216539D01*
X55827870Y-118289110D01*
X55827870Y-118337491D01*
X55852060Y-118410063D01*
X55876250Y-118434253D01*
X55876250Y-118627777D02*
X55852060Y-118651967D01*
X55827870Y-118700348D01*
X55827870Y-118821301D01*
X55852060Y-118869682D01*
X55876250Y-118893872D01*
X55924631Y-118918063D01*
X55973012Y-118918063D01*
X56045584Y-118893872D01*
X56335870Y-118603586D01*
X56335870Y-118918063D01*
X57011389Y-100786353D02*
X57035579Y-100762163D01*
X57059770Y-100689591D01*
X57059770Y-100641210D01*
X57035579Y-100568639D01*
X56987198Y-100520258D01*
X56938817Y-100496067D01*
X56842055Y-100471877D01*
X56769484Y-100471877D01*
X56672722Y-100496067D01*
X56624341Y-100520258D01*
X56575960Y-100568639D01*
X56551770Y-100641210D01*
X56551770Y-100689591D01*
X56575960Y-100762163D01*
X56600150Y-100786353D01*
X56551770Y-100955686D02*
X56551770Y-101270163D01*
X56745293Y-101100829D01*
X56745293Y-101173401D01*
X56769484Y-101221782D01*
X56793674Y-101245972D01*
X56842055Y-101270163D01*
X56963008Y-101270163D01*
X57011389Y-101245972D01*
X57035579Y-101221782D01*
X57059770Y-101173401D01*
X57059770Y-101028258D01*
X57035579Y-100979877D01*
X57011389Y-100955686D01*
X57811489Y-118449493D02*
X57835679Y-118425303D01*
X57859870Y-118352731D01*
X57859870Y-118304350D01*
X57835679Y-118231779D01*
X57787298Y-118183398D01*
X57738917Y-118159207D01*
X57642155Y-118135017D01*
X57569584Y-118135017D01*
X57472822Y-118159207D01*
X57424441Y-118183398D01*
X57376060Y-118231779D01*
X57351870Y-118304350D01*
X57351870Y-118352731D01*
X57376060Y-118425303D01*
X57400250Y-118449493D01*
X57521203Y-118884922D02*
X57859870Y-118884922D01*
X57327679Y-118763969D02*
X57690536Y-118643017D01*
X57690536Y-118957493D01*
X63300187Y-111326749D02*
X63324377Y-111350939D01*
X63396949Y-111375130D01*
X63445330Y-111375130D01*
X63517901Y-111350939D01*
X63566282Y-111302558D01*
X63590473Y-111254177D01*
X63614663Y-111157415D01*
X63614663Y-111084844D01*
X63590473Y-110988082D01*
X63566282Y-110939701D01*
X63517901Y-110891320D01*
X63445330Y-110867130D01*
X63396949Y-110867130D01*
X63324377Y-110891320D01*
X63300187Y-110915510D01*
X62840568Y-110867130D02*
X63082473Y-110867130D01*
X63106663Y-111109034D01*
X63082473Y-111084844D01*
X63034092Y-111060653D01*
X62913139Y-111060653D01*
X62864758Y-111084844D01*
X62840568Y-111109034D01*
X62816377Y-111157415D01*
X62816377Y-111278368D01*
X62840568Y-111326749D01*
X62864758Y-111350939D01*
X62913139Y-111375130D01*
X63034092Y-111375130D01*
X63082473Y-111350939D01*
X63106663Y-111326749D01*
X59251669Y-118464733D02*
X59275859Y-118440543D01*
X59300050Y-118367971D01*
X59300050Y-118319590D01*
X59275859Y-118247019D01*
X59227478Y-118198638D01*
X59179097Y-118174447D01*
X59082335Y-118150257D01*
X59009764Y-118150257D01*
X58913002Y-118174447D01*
X58864621Y-118198638D01*
X58816240Y-118247019D01*
X58792050Y-118319590D01*
X58792050Y-118367971D01*
X58816240Y-118440543D01*
X58840430Y-118464733D01*
X58792050Y-118900162D02*
X58792050Y-118803400D01*
X58816240Y-118755019D01*
X58840430Y-118730828D01*
X58913002Y-118682447D01*
X59009764Y-118658257D01*
X59203288Y-118658257D01*
X59251669Y-118682447D01*
X59275859Y-118706638D01*
X59300050Y-118755019D01*
X59300050Y-118851781D01*
X59275859Y-118900162D01*
X59251669Y-118924352D01*
X59203288Y-118948543D01*
X59082335Y-118948543D01*
X59033954Y-118924352D01*
X59009764Y-118900162D01*
X58985573Y-118851781D01*
X58985573Y-118755019D01*
X59009764Y-118706638D01*
X59033954Y-118682447D01*
X59082335Y-118658257D01*
X60745189Y-104301713D02*
X60769379Y-104277523D01*
X60793570Y-104204951D01*
X60793570Y-104156570D01*
X60769379Y-104083999D01*
X60720998Y-104035618D01*
X60672617Y-104011427D01*
X60575855Y-103987237D01*
X60503284Y-103987237D01*
X60406522Y-104011427D01*
X60358141Y-104035618D01*
X60309760Y-104083999D01*
X60285570Y-104156570D01*
X60285570Y-104204951D01*
X60309760Y-104277523D01*
X60333950Y-104301713D01*
X60285570Y-104471046D02*
X60285570Y-104809713D01*
X60793570Y-104591999D01*
X56965669Y-114593793D02*
X56989859Y-114569603D01*
X57014050Y-114497031D01*
X57014050Y-114448650D01*
X56989859Y-114376079D01*
X56941478Y-114327698D01*
X56893097Y-114303507D01*
X56796335Y-114279317D01*
X56723764Y-114279317D01*
X56627002Y-114303507D01*
X56578621Y-114327698D01*
X56530240Y-114376079D01*
X56506050Y-114448650D01*
X56506050Y-114497031D01*
X56530240Y-114569603D01*
X56554430Y-114593793D01*
X56723764Y-114884079D02*
X56699573Y-114835698D01*
X56675383Y-114811507D01*
X56627002Y-114787317D01*
X56602811Y-114787317D01*
X56554430Y-114811507D01*
X56530240Y-114835698D01*
X56506050Y-114884079D01*
X56506050Y-114980841D01*
X56530240Y-115029222D01*
X56554430Y-115053412D01*
X56602811Y-115077603D01*
X56627002Y-115077603D01*
X56675383Y-115053412D01*
X56699573Y-115029222D01*
X56723764Y-114980841D01*
X56723764Y-114884079D01*
X56747954Y-114835698D01*
X56772145Y-114811507D01*
X56820526Y-114787317D01*
X56917288Y-114787317D01*
X56965669Y-114811507D01*
X56989859Y-114835698D01*
X57014050Y-114884079D01*
X57014050Y-114980841D01*
X56989859Y-115029222D01*
X56965669Y-115053412D01*
X56917288Y-115077603D01*
X56820526Y-115077603D01*
X56772145Y-115053412D01*
X56747954Y-115029222D01*
X56723764Y-114980841D01*
X55700749Y-104408393D02*
X55724939Y-104384203D01*
X55749130Y-104311631D01*
X55749130Y-104263250D01*
X55724939Y-104190679D01*
X55676558Y-104142298D01*
X55628177Y-104118107D01*
X55531415Y-104093917D01*
X55458844Y-104093917D01*
X55362082Y-104118107D01*
X55313701Y-104142298D01*
X55265320Y-104190679D01*
X55241130Y-104263250D01*
X55241130Y-104311631D01*
X55265320Y-104384203D01*
X55289510Y-104408393D01*
X55749130Y-104650298D02*
X55749130Y-104747060D01*
X55724939Y-104795441D01*
X55700749Y-104819631D01*
X55628177Y-104868012D01*
X55531415Y-104892203D01*
X55337891Y-104892203D01*
X55289510Y-104868012D01*
X55265320Y-104843822D01*
X55241130Y-104795441D01*
X55241130Y-104698679D01*
X55265320Y-104650298D01*
X55289510Y-104626107D01*
X55337891Y-104601917D01*
X55458844Y-104601917D01*
X55507225Y-104626107D01*
X55531415Y-104650298D01*
X55555606Y-104698679D01*
X55555606Y-104795441D01*
X55531415Y-104843822D01*
X55507225Y-104868012D01*
X55458844Y-104892203D01*
X58474429Y-114590648D02*
X58498619Y-114566458D01*
X58522810Y-114493886D01*
X58522810Y-114445505D01*
X58498619Y-114372934D01*
X58450238Y-114324553D01*
X58401857Y-114300362D01*
X58305095Y-114276172D01*
X58232524Y-114276172D01*
X58135762Y-114300362D01*
X58087381Y-114324553D01*
X58039000Y-114372934D01*
X58014810Y-114445505D01*
X58014810Y-114493886D01*
X58039000Y-114566458D01*
X58063190Y-114590648D01*
X58522810Y-115074458D02*
X58522810Y-114784172D01*
X58522810Y-114929315D02*
X58014810Y-114929315D01*
X58087381Y-114880934D01*
X58135762Y-114832553D01*
X58159952Y-114784172D01*
X58014810Y-115388934D02*
X58014810Y-115437315D01*
X58039000Y-115485696D01*
X58063190Y-115509887D01*
X58111571Y-115534077D01*
X58208333Y-115558268D01*
X58329286Y-115558268D01*
X58426048Y-115534077D01*
X58474429Y-115509887D01*
X58498619Y-115485696D01*
X58522810Y-115437315D01*
X58522810Y-115388934D01*
X58498619Y-115340553D01*
X58474429Y-115316363D01*
X58426048Y-115292172D01*
X58329286Y-115267982D01*
X58208333Y-115267982D01*
X58111571Y-115292172D01*
X58063190Y-115316363D01*
X58039000Y-115340553D01*
X58014810Y-115388934D01*
X66978712Y-112774549D02*
X67002902Y-112798739D01*
X67075474Y-112822930D01*
X67123855Y-112822930D01*
X67196426Y-112798739D01*
X67244807Y-112750358D01*
X67268998Y-112701977D01*
X67293188Y-112605215D01*
X67293188Y-112532644D01*
X67268998Y-112435882D01*
X67244807Y-112387501D01*
X67196426Y-112339120D01*
X67123855Y-112314930D01*
X67075474Y-112314930D01*
X67002902Y-112339120D01*
X66978712Y-112363310D01*
X66494902Y-112822930D02*
X66785188Y-112822930D01*
X66640045Y-112822930D02*
X66640045Y-112314930D01*
X66688426Y-112387501D01*
X66736807Y-112435882D01*
X66785188Y-112460072D01*
X66011092Y-112822930D02*
X66301378Y-112822930D01*
X66156235Y-112822930D02*
X66156235Y-112314930D01*
X66204616Y-112387501D01*
X66252997Y-112435882D01*
X66301378Y-112460072D01*
X59937469Y-114567788D02*
X59961659Y-114543598D01*
X59985850Y-114471026D01*
X59985850Y-114422645D01*
X59961659Y-114350074D01*
X59913278Y-114301693D01*
X59864897Y-114277502D01*
X59768135Y-114253312D01*
X59695564Y-114253312D01*
X59598802Y-114277502D01*
X59550421Y-114301693D01*
X59502040Y-114350074D01*
X59477850Y-114422645D01*
X59477850Y-114471026D01*
X59502040Y-114543598D01*
X59526230Y-114567788D01*
X59985850Y-115051598D02*
X59985850Y-114761312D01*
X59985850Y-114906455D02*
X59477850Y-114906455D01*
X59550421Y-114858074D01*
X59598802Y-114809693D01*
X59622992Y-114761312D01*
X59526230Y-115245122D02*
X59502040Y-115269312D01*
X59477850Y-115317693D01*
X59477850Y-115438646D01*
X59502040Y-115487027D01*
X59526230Y-115511217D01*
X59574611Y-115535408D01*
X59622992Y-115535408D01*
X59695564Y-115511217D01*
X59985850Y-115220931D01*
X59985850Y-115535408D01*
X54793969Y-118413328D02*
X54818159Y-118389138D01*
X54842350Y-118316566D01*
X54842350Y-118268185D01*
X54818159Y-118195614D01*
X54769778Y-118147233D01*
X54721397Y-118123042D01*
X54624635Y-118098852D01*
X54552064Y-118098852D01*
X54455302Y-118123042D01*
X54406921Y-118147233D01*
X54358540Y-118195614D01*
X54334350Y-118268185D01*
X54334350Y-118316566D01*
X54358540Y-118389138D01*
X54382730Y-118413328D01*
X54842350Y-118897138D02*
X54842350Y-118606852D01*
X54842350Y-118751995D02*
X54334350Y-118751995D01*
X54406921Y-118703614D01*
X54455302Y-118655233D01*
X54479492Y-118606852D01*
X54334350Y-119356757D02*
X54334350Y-119114852D01*
X54576254Y-119090662D01*
X54552064Y-119114852D01*
X54527873Y-119163233D01*
X54527873Y-119284186D01*
X54552064Y-119332567D01*
X54576254Y-119356757D01*
X54624635Y-119380948D01*
X54745588Y-119380948D01*
X54793969Y-119356757D01*
X54818159Y-119332567D01*
X54842350Y-119284186D01*
X54842350Y-119163233D01*
X54818159Y-119114852D01*
X54793969Y-119090662D01*
X48139532Y-111684889D02*
X48163722Y-111709079D01*
X48236294Y-111733270D01*
X48284675Y-111733270D01*
X48357246Y-111709079D01*
X48405627Y-111660698D01*
X48429818Y-111612317D01*
X48454008Y-111515555D01*
X48454008Y-111442984D01*
X48429818Y-111346222D01*
X48405627Y-111297841D01*
X48357246Y-111249460D01*
X48284675Y-111225270D01*
X48236294Y-111225270D01*
X48163722Y-111249460D01*
X48139532Y-111273650D01*
X47655722Y-111733270D02*
X47946008Y-111733270D01*
X47800865Y-111733270D02*
X47800865Y-111225270D01*
X47849246Y-111297841D01*
X47897627Y-111346222D01*
X47946008Y-111370412D01*
X47220293Y-111225270D02*
X47317055Y-111225270D01*
X47365436Y-111249460D01*
X47389627Y-111273650D01*
X47438008Y-111346222D01*
X47462198Y-111442984D01*
X47462198Y-111636508D01*
X47438008Y-111684889D01*
X47413817Y-111709079D01*
X47365436Y-111733270D01*
X47268674Y-111733270D01*
X47220293Y-111709079D01*
X47196103Y-111684889D01*
X47171912Y-111636508D01*
X47171912Y-111515555D01*
X47196103Y-111467174D01*
X47220293Y-111442984D01*
X47268674Y-111418793D01*
X47365436Y-111418793D01*
X47413817Y-111442984D01*
X47438008Y-111467174D01*
X47462198Y-111515555D01*
X48114132Y-110196449D02*
X48138322Y-110220639D01*
X48210894Y-110244830D01*
X48259275Y-110244830D01*
X48331846Y-110220639D01*
X48380227Y-110172258D01*
X48404418Y-110123877D01*
X48428608Y-110027115D01*
X48428608Y-109954544D01*
X48404418Y-109857782D01*
X48380227Y-109809401D01*
X48331846Y-109761020D01*
X48259275Y-109736830D01*
X48210894Y-109736830D01*
X48138322Y-109761020D01*
X48114132Y-109785210D01*
X47630322Y-110244830D02*
X47920608Y-110244830D01*
X47775465Y-110244830D02*
X47775465Y-109736830D01*
X47823846Y-109809401D01*
X47872227Y-109857782D01*
X47920608Y-109881972D01*
X47460989Y-109736830D02*
X47122322Y-109736830D01*
X47340036Y-110244830D01*
X60836629Y-118459048D02*
X60860819Y-118434858D01*
X60885010Y-118362286D01*
X60885010Y-118313905D01*
X60860819Y-118241334D01*
X60812438Y-118192953D01*
X60764057Y-118168762D01*
X60667295Y-118144572D01*
X60594724Y-118144572D01*
X60497962Y-118168762D01*
X60449581Y-118192953D01*
X60401200Y-118241334D01*
X60377010Y-118313905D01*
X60377010Y-118362286D01*
X60401200Y-118434858D01*
X60425390Y-118459048D01*
X60885010Y-118942858D02*
X60885010Y-118652572D01*
X60885010Y-118797715D02*
X60377010Y-118797715D01*
X60449581Y-118749334D01*
X60497962Y-118700953D01*
X60522152Y-118652572D01*
X60594724Y-119233144D02*
X60570533Y-119184763D01*
X60546343Y-119160572D01*
X60497962Y-119136382D01*
X60473771Y-119136382D01*
X60425390Y-119160572D01*
X60401200Y-119184763D01*
X60377010Y-119233144D01*
X60377010Y-119329906D01*
X60401200Y-119378287D01*
X60425390Y-119402477D01*
X60473771Y-119426668D01*
X60497962Y-119426668D01*
X60546343Y-119402477D01*
X60570533Y-119378287D01*
X60594724Y-119329906D01*
X60594724Y-119233144D01*
X60618914Y-119184763D01*
X60643105Y-119160572D01*
X60691486Y-119136382D01*
X60788248Y-119136382D01*
X60836629Y-119160572D01*
X60860819Y-119184763D01*
X60885010Y-119233144D01*
X60885010Y-119329906D01*
X60860819Y-119378287D01*
X60836629Y-119402477D01*
X60788248Y-119426668D01*
X60691486Y-119426668D01*
X60643105Y-119402477D01*
X60618914Y-119378287D01*
X60594724Y-119329906D01*
X48101432Y-107636129D02*
X48125622Y-107660319D01*
X48198194Y-107684510D01*
X48246575Y-107684510D01*
X48319146Y-107660319D01*
X48367527Y-107611938D01*
X48391718Y-107563557D01*
X48415908Y-107466795D01*
X48415908Y-107394224D01*
X48391718Y-107297462D01*
X48367527Y-107249081D01*
X48319146Y-107200700D01*
X48246575Y-107176510D01*
X48198194Y-107176510D01*
X48125622Y-107200700D01*
X48101432Y-107224890D01*
X47617622Y-107684510D02*
X47907908Y-107684510D01*
X47762765Y-107684510D02*
X47762765Y-107176510D01*
X47811146Y-107249081D01*
X47859527Y-107297462D01*
X47907908Y-107321652D01*
X47375717Y-107684510D02*
X47278955Y-107684510D01*
X47230574Y-107660319D01*
X47206384Y-107636129D01*
X47158003Y-107563557D01*
X47133812Y-107466795D01*
X47133812Y-107273271D01*
X47158003Y-107224890D01*
X47182193Y-107200700D01*
X47230574Y-107176510D01*
X47327336Y-107176510D01*
X47375717Y-107200700D01*
X47399908Y-107224890D01*
X47424098Y-107273271D01*
X47424098Y-107394224D01*
X47399908Y-107442605D01*
X47375717Y-107466795D01*
X47327336Y-107490986D01*
X47230574Y-107490986D01*
X47182193Y-107466795D01*
X47158003Y-107442605D01*
X47133812Y-107394224D01*
X52414352Y-110732389D02*
X52438542Y-110756579D01*
X52511114Y-110780770D01*
X52559495Y-110780770D01*
X52632066Y-110756579D01*
X52680447Y-110708198D01*
X52704638Y-110659817D01*
X52728828Y-110563055D01*
X52728828Y-110490484D01*
X52704638Y-110393722D01*
X52680447Y-110345341D01*
X52632066Y-110296960D01*
X52559495Y-110272770D01*
X52511114Y-110272770D01*
X52438542Y-110296960D01*
X52414352Y-110321150D01*
X52220828Y-110321150D02*
X52196638Y-110296960D01*
X52148257Y-110272770D01*
X52027304Y-110272770D01*
X51978923Y-110296960D01*
X51954733Y-110321150D01*
X51930542Y-110369531D01*
X51930542Y-110417912D01*
X51954733Y-110490484D01*
X52245019Y-110780770D01*
X51930542Y-110780770D01*
X51616066Y-110272770D02*
X51567685Y-110272770D01*
X51519304Y-110296960D01*
X51495113Y-110321150D01*
X51470923Y-110369531D01*
X51446732Y-110466293D01*
X51446732Y-110587246D01*
X51470923Y-110684008D01*
X51495113Y-110732389D01*
X51519304Y-110756579D01*
X51567685Y-110780770D01*
X51616066Y-110780770D01*
X51664447Y-110756579D01*
X51688637Y-110732389D01*
X51712828Y-110684008D01*
X51737018Y-110587246D01*
X51737018Y-110466293D01*
X51712828Y-110369531D01*
X51688637Y-110321150D01*
X51664447Y-110296960D01*
X51616066Y-110272770D01*
X55401029Y-114567788D02*
X55425219Y-114543598D01*
X55449410Y-114471026D01*
X55449410Y-114422645D01*
X55425219Y-114350074D01*
X55376838Y-114301693D01*
X55328457Y-114277502D01*
X55231695Y-114253312D01*
X55159124Y-114253312D01*
X55062362Y-114277502D01*
X55013981Y-114301693D01*
X54965600Y-114350074D01*
X54941410Y-114422645D01*
X54941410Y-114471026D01*
X54965600Y-114543598D01*
X54989790Y-114567788D01*
X54989790Y-114761312D02*
X54965600Y-114785502D01*
X54941410Y-114833883D01*
X54941410Y-114954836D01*
X54965600Y-115003217D01*
X54989790Y-115027407D01*
X55038171Y-115051598D01*
X55086552Y-115051598D01*
X55159124Y-115027407D01*
X55449410Y-114737121D01*
X55449410Y-115051598D01*
X55449410Y-115535408D02*
X55449410Y-115245122D01*
X55449410Y-115390265D02*
X54941410Y-115390265D01*
X55013981Y-115341884D01*
X55062362Y-115293503D01*
X55086552Y-115245122D01*
X59274529Y-100737488D02*
X59298719Y-100713298D01*
X59322910Y-100640726D01*
X59322910Y-100592345D01*
X59298719Y-100519774D01*
X59250338Y-100471393D01*
X59201957Y-100447202D01*
X59105195Y-100423012D01*
X59032624Y-100423012D01*
X58935862Y-100447202D01*
X58887481Y-100471393D01*
X58839100Y-100519774D01*
X58814910Y-100592345D01*
X58814910Y-100640726D01*
X58839100Y-100713298D01*
X58863290Y-100737488D01*
X58863290Y-100931012D02*
X58839100Y-100955202D01*
X58814910Y-101003583D01*
X58814910Y-101124536D01*
X58839100Y-101172917D01*
X58863290Y-101197107D01*
X58911671Y-101221298D01*
X58960052Y-101221298D01*
X59032624Y-101197107D01*
X59322910Y-100906821D01*
X59322910Y-101221298D01*
X58863290Y-101414822D02*
X58839100Y-101439012D01*
X58814910Y-101487393D01*
X58814910Y-101608346D01*
X58839100Y-101656727D01*
X58863290Y-101680917D01*
X58911671Y-101705108D01*
X58960052Y-101705108D01*
X59032624Y-101680917D01*
X59322910Y-101390631D01*
X59322910Y-101705108D01*
X61458929Y-114613508D02*
X61483119Y-114589318D01*
X61507310Y-114516746D01*
X61507310Y-114468365D01*
X61483119Y-114395794D01*
X61434738Y-114347413D01*
X61386357Y-114323222D01*
X61289595Y-114299032D01*
X61217024Y-114299032D01*
X61120262Y-114323222D01*
X61071881Y-114347413D01*
X61023500Y-114395794D01*
X60999310Y-114468365D01*
X60999310Y-114516746D01*
X61023500Y-114589318D01*
X61047690Y-114613508D01*
X61047690Y-114807032D02*
X61023500Y-114831222D01*
X60999310Y-114879603D01*
X60999310Y-115000556D01*
X61023500Y-115048937D01*
X61047690Y-115073127D01*
X61096071Y-115097318D01*
X61144452Y-115097318D01*
X61217024Y-115073127D01*
X61507310Y-114782841D01*
X61507310Y-115097318D01*
X60999310Y-115266651D02*
X60999310Y-115581128D01*
X61192833Y-115411794D01*
X61192833Y-115484366D01*
X61217024Y-115532747D01*
X61241214Y-115556937D01*
X61289595Y-115581128D01*
X61410548Y-115581128D01*
X61458929Y-115556937D01*
X61483119Y-115532747D01*
X61507310Y-115484366D01*
X61507310Y-115339223D01*
X61483119Y-115290842D01*
X61458929Y-115266651D01*
X68091232Y-110473309D02*
X68115422Y-110497499D01*
X68187994Y-110521690D01*
X68236375Y-110521690D01*
X68308946Y-110497499D01*
X68357327Y-110449118D01*
X68381518Y-110400737D01*
X68405708Y-110303975D01*
X68405708Y-110231404D01*
X68381518Y-110134642D01*
X68357327Y-110086261D01*
X68308946Y-110037880D01*
X68236375Y-110013690D01*
X68187994Y-110013690D01*
X68115422Y-110037880D01*
X68091232Y-110062070D01*
X67897708Y-110062070D02*
X67873518Y-110037880D01*
X67825137Y-110013690D01*
X67704184Y-110013690D01*
X67655803Y-110037880D01*
X67631613Y-110062070D01*
X67607422Y-110110451D01*
X67607422Y-110158832D01*
X67631613Y-110231404D01*
X67921899Y-110521690D01*
X67607422Y-110521690D01*
X67171993Y-110183023D02*
X67171993Y-110521690D01*
X67292946Y-109989499D02*
X67413898Y-110352356D01*
X67099422Y-110352356D01*
X52493092Y-112286869D02*
X52517282Y-112311059D01*
X52589854Y-112335250D01*
X52638235Y-112335250D01*
X52710806Y-112311059D01*
X52759187Y-112262678D01*
X52783378Y-112214297D01*
X52807568Y-112117535D01*
X52807568Y-112044964D01*
X52783378Y-111948202D01*
X52759187Y-111899821D01*
X52710806Y-111851440D01*
X52638235Y-111827250D01*
X52589854Y-111827250D01*
X52517282Y-111851440D01*
X52493092Y-111875630D01*
X52299568Y-111875630D02*
X52275378Y-111851440D01*
X52226997Y-111827250D01*
X52106044Y-111827250D01*
X52057663Y-111851440D01*
X52033473Y-111875630D01*
X52009282Y-111924011D01*
X52009282Y-111972392D01*
X52033473Y-112044964D01*
X52323759Y-112335250D01*
X52009282Y-112335250D01*
X51549663Y-111827250D02*
X51791568Y-111827250D01*
X51815758Y-112069154D01*
X51791568Y-112044964D01*
X51743187Y-112020773D01*
X51622234Y-112020773D01*
X51573853Y-112044964D01*
X51549663Y-112069154D01*
X51525472Y-112117535D01*
X51525472Y-112238488D01*
X51549663Y-112286869D01*
X51573853Y-112311059D01*
X51622234Y-112335250D01*
X51743187Y-112335250D01*
X51791568Y-112311059D01*
X51815758Y-112286869D01*
X52454992Y-108370189D02*
X52479182Y-108394379D01*
X52551754Y-108418570D01*
X52600135Y-108418570D01*
X52672706Y-108394379D01*
X52721087Y-108345998D01*
X52745278Y-108297617D01*
X52769468Y-108200855D01*
X52769468Y-108128284D01*
X52745278Y-108031522D01*
X52721087Y-107983141D01*
X52672706Y-107934760D01*
X52600135Y-107910570D01*
X52551754Y-107910570D01*
X52479182Y-107934760D01*
X52454992Y-107958950D01*
X52261468Y-107958950D02*
X52237278Y-107934760D01*
X52188897Y-107910570D01*
X52067944Y-107910570D01*
X52019563Y-107934760D01*
X51995373Y-107958950D01*
X51971182Y-108007331D01*
X51971182Y-108055712D01*
X51995373Y-108128284D01*
X52285659Y-108418570D01*
X51971182Y-108418570D01*
X51535753Y-107910570D02*
X51632515Y-107910570D01*
X51680896Y-107934760D01*
X51705087Y-107958950D01*
X51753468Y-108031522D01*
X51777658Y-108128284D01*
X51777658Y-108321808D01*
X51753468Y-108370189D01*
X51729277Y-108394379D01*
X51680896Y-108418570D01*
X51584134Y-108418570D01*
X51535753Y-108394379D01*
X51511563Y-108370189D01*
X51487372Y-108321808D01*
X51487372Y-108200855D01*
X51511563Y-108152474D01*
X51535753Y-108128284D01*
X51584134Y-108104093D01*
X51680896Y-108104093D01*
X51729277Y-108128284D01*
X51753468Y-108152474D01*
X51777658Y-108200855D01*
X57681949Y-104036948D02*
X57706139Y-104012758D01*
X57730330Y-103940186D01*
X57730330Y-103891805D01*
X57706139Y-103819234D01*
X57657758Y-103770853D01*
X57609377Y-103746662D01*
X57512615Y-103722472D01*
X57440044Y-103722472D01*
X57343282Y-103746662D01*
X57294901Y-103770853D01*
X57246520Y-103819234D01*
X57222330Y-103891805D01*
X57222330Y-103940186D01*
X57246520Y-104012758D01*
X57270710Y-104036948D01*
X57270710Y-104230472D02*
X57246520Y-104254662D01*
X57222330Y-104303043D01*
X57222330Y-104423996D01*
X57246520Y-104472377D01*
X57270710Y-104496567D01*
X57319091Y-104520758D01*
X57367472Y-104520758D01*
X57440044Y-104496567D01*
X57730330Y-104206281D01*
X57730330Y-104520758D01*
X57222330Y-104690091D02*
X57222330Y-105028758D01*
X57730330Y-104811044D01*
X63689412Y-109660509D02*
X63713602Y-109684699D01*
X63786174Y-109708890D01*
X63834555Y-109708890D01*
X63907126Y-109684699D01*
X63955507Y-109636318D01*
X63979698Y-109587937D01*
X64003888Y-109491175D01*
X64003888Y-109418604D01*
X63979698Y-109321842D01*
X63955507Y-109273461D01*
X63907126Y-109225080D01*
X63834555Y-109200890D01*
X63786174Y-109200890D01*
X63713602Y-109225080D01*
X63689412Y-109249270D01*
X63495888Y-109249270D02*
X63471698Y-109225080D01*
X63423317Y-109200890D01*
X63302364Y-109200890D01*
X63253983Y-109225080D01*
X63229793Y-109249270D01*
X63205602Y-109297651D01*
X63205602Y-109346032D01*
X63229793Y-109418604D01*
X63520079Y-109708890D01*
X63205602Y-109708890D01*
X62915316Y-109418604D02*
X62963697Y-109394413D01*
X62987888Y-109370223D01*
X63012078Y-109321842D01*
X63012078Y-109297651D01*
X62987888Y-109249270D01*
X62963697Y-109225080D01*
X62915316Y-109200890D01*
X62818554Y-109200890D01*
X62770173Y-109225080D01*
X62745983Y-109249270D01*
X62721792Y-109297651D01*
X62721792Y-109321842D01*
X62745983Y-109370223D01*
X62770173Y-109394413D01*
X62818554Y-109418604D01*
X62915316Y-109418604D01*
X62963697Y-109442794D01*
X62987888Y-109466985D01*
X63012078Y-109515366D01*
X63012078Y-109612128D01*
X62987888Y-109660509D01*
X62963697Y-109684699D01*
X62915316Y-109708890D01*
X62818554Y-109708890D01*
X62770173Y-109684699D01*
X62745983Y-109660509D01*
X62721792Y-109612128D01*
X62721792Y-109515366D01*
X62745983Y-109466985D01*
X62770173Y-109442794D01*
X62818554Y-109418604D01*
X68048293Y-101644994D02*
X68217627Y-101644994D01*
X68217627Y-101911090D02*
X68217627Y-101403090D01*
X67975722Y-101403090D01*
X67612864Y-101644994D02*
X67540293Y-101669185D01*
X67516102Y-101693375D01*
X67491912Y-101741756D01*
X67491912Y-101814328D01*
X67516102Y-101862709D01*
X67540293Y-101886899D01*
X67588674Y-101911090D01*
X67782198Y-101911090D01*
X67782198Y-101403090D01*
X67612864Y-101403090D01*
X67564483Y-101427280D01*
X67540293Y-101451470D01*
X67516102Y-101499851D01*
X67516102Y-101548232D01*
X67540293Y-101596613D01*
X67564483Y-101620804D01*
X67612864Y-101644994D01*
X67782198Y-101644994D01*
X67008102Y-101911090D02*
X67298388Y-101911090D01*
X67153245Y-101911090D02*
X67153245Y-101403090D01*
X67201626Y-101475661D01*
X67250007Y-101524042D01*
X67298388Y-101548232D01*
X58805233Y-125198414D02*
X58974567Y-125198414D01*
X58974567Y-125464510D02*
X58974567Y-124956510D01*
X58732662Y-124956510D01*
X58369804Y-125198414D02*
X58297233Y-125222605D01*
X58273042Y-125246795D01*
X58248852Y-125295176D01*
X58248852Y-125367748D01*
X58273042Y-125416129D01*
X58297233Y-125440319D01*
X58345614Y-125464510D01*
X58539138Y-125464510D01*
X58539138Y-124956510D01*
X58369804Y-124956510D01*
X58321423Y-124980700D01*
X58297233Y-125004890D01*
X58273042Y-125053271D01*
X58273042Y-125101652D01*
X58297233Y-125150033D01*
X58321423Y-125174224D01*
X58369804Y-125198414D01*
X58539138Y-125198414D01*
X58055328Y-125004890D02*
X58031138Y-124980700D01*
X57982757Y-124956510D01*
X57861804Y-124956510D01*
X57813423Y-124980700D01*
X57789233Y-125004890D01*
X57765042Y-125053271D01*
X57765042Y-125101652D01*
X57789233Y-125174224D01*
X58079519Y-125464510D01*
X57765042Y-125464510D01*
X56592893Y-125198414D02*
X56762227Y-125198414D01*
X56762227Y-125464510D02*
X56762227Y-124956510D01*
X56520322Y-124956510D01*
X56157464Y-125198414D02*
X56084893Y-125222605D01*
X56060702Y-125246795D01*
X56036512Y-125295176D01*
X56036512Y-125367748D01*
X56060702Y-125416129D01*
X56084893Y-125440319D01*
X56133274Y-125464510D01*
X56326798Y-125464510D01*
X56326798Y-124956510D01*
X56157464Y-124956510D01*
X56109083Y-124980700D01*
X56084893Y-125004890D01*
X56060702Y-125053271D01*
X56060702Y-125101652D01*
X56084893Y-125150033D01*
X56109083Y-125174224D01*
X56157464Y-125198414D01*
X56326798Y-125198414D01*
X55867179Y-124956510D02*
X55552702Y-124956510D01*
X55722036Y-125150033D01*
X55649464Y-125150033D01*
X55601083Y-125174224D01*
X55576893Y-125198414D01*
X55552702Y-125246795D01*
X55552702Y-125367748D01*
X55576893Y-125416129D01*
X55601083Y-125440319D01*
X55649464Y-125464510D01*
X55794607Y-125464510D01*
X55842988Y-125440319D01*
X55867179Y-125416129D01*
X50674693Y-101197954D02*
X50844027Y-101197954D01*
X50844027Y-101464050D02*
X50844027Y-100956050D01*
X50602122Y-100956050D01*
X50239264Y-101197954D02*
X50166693Y-101222145D01*
X50142502Y-101246335D01*
X50118312Y-101294716D01*
X50118312Y-101367288D01*
X50142502Y-101415669D01*
X50166693Y-101439859D01*
X50215074Y-101464050D01*
X50408598Y-101464050D01*
X50408598Y-100956050D01*
X50239264Y-100956050D01*
X50190883Y-100980240D01*
X50166693Y-101004430D01*
X50142502Y-101052811D01*
X50142502Y-101101192D01*
X50166693Y-101149573D01*
X50190883Y-101173764D01*
X50239264Y-101197954D01*
X50408598Y-101197954D01*
X49682883Y-101125383D02*
X49682883Y-101464050D01*
X49803836Y-100931859D02*
X49924788Y-101294716D01*
X49610312Y-101294716D01*
X48073733Y-101177634D02*
X48243067Y-101177634D01*
X48243067Y-101443730D02*
X48243067Y-100935730D01*
X48001162Y-100935730D01*
X47638304Y-101177634D02*
X47565733Y-101201825D01*
X47541542Y-101226015D01*
X47517352Y-101274396D01*
X47517352Y-101346968D01*
X47541542Y-101395349D01*
X47565733Y-101419539D01*
X47614114Y-101443730D01*
X47807638Y-101443730D01*
X47807638Y-100935730D01*
X47638304Y-100935730D01*
X47589923Y-100959920D01*
X47565733Y-100984110D01*
X47541542Y-101032491D01*
X47541542Y-101080872D01*
X47565733Y-101129253D01*
X47589923Y-101153444D01*
X47638304Y-101177634D01*
X47807638Y-101177634D01*
X47057733Y-100935730D02*
X47299638Y-100935730D01*
X47323828Y-101177634D01*
X47299638Y-101153444D01*
X47251257Y-101129253D01*
X47130304Y-101129253D01*
X47081923Y-101153444D01*
X47057733Y-101177634D01*
X47033542Y-101226015D01*
X47033542Y-101346968D01*
X47057733Y-101395349D01*
X47081923Y-101419539D01*
X47130304Y-101443730D01*
X47251257Y-101443730D01*
X47299638Y-101419539D01*
X47323828Y-101395349D01*
X70879547Y-101890770D02*
X71048880Y-101648865D01*
X71169833Y-101890770D02*
X71169833Y-101382770D01*
X70976309Y-101382770D01*
X70927928Y-101406960D01*
X70903737Y-101431150D01*
X70879547Y-101479531D01*
X70879547Y-101552103D01*
X70903737Y-101600484D01*
X70927928Y-101624674D01*
X70976309Y-101648865D01*
X71169833Y-101648865D01*
X70395737Y-101890770D02*
X70686023Y-101890770D01*
X70540880Y-101890770D02*
X70540880Y-101382770D01*
X70589261Y-101455341D01*
X70637642Y-101503722D01*
X70686023Y-101527912D01*
X53320907Y-124902410D02*
X53490240Y-124660505D01*
X53611193Y-124902410D02*
X53611193Y-124394410D01*
X53417669Y-124394410D01*
X53369288Y-124418600D01*
X53345097Y-124442790D01*
X53320907Y-124491171D01*
X53320907Y-124563743D01*
X53345097Y-124612124D01*
X53369288Y-124636314D01*
X53417669Y-124660505D01*
X53611193Y-124660505D01*
X53151574Y-124394410D02*
X52837097Y-124394410D01*
X53006431Y-124587933D01*
X52933859Y-124587933D01*
X52885478Y-124612124D01*
X52861288Y-124636314D01*
X52837097Y-124684695D01*
X52837097Y-124805648D01*
X52861288Y-124854029D01*
X52885478Y-124878219D01*
X52933859Y-124902410D01*
X53079002Y-124902410D01*
X53127383Y-124878219D01*
X53151574Y-124854029D01*
X51979787Y-124902410D02*
X52149120Y-124660505D01*
X52270073Y-124902410D02*
X52270073Y-124394410D01*
X52076549Y-124394410D01*
X52028168Y-124418600D01*
X52003977Y-124442790D01*
X51979787Y-124491171D01*
X51979787Y-124563743D01*
X52003977Y-124612124D01*
X52028168Y-124636314D01*
X52076549Y-124660505D01*
X52270073Y-124660505D01*
X51544358Y-124563743D02*
X51544358Y-124902410D01*
X51665311Y-124370219D02*
X51786263Y-124733076D01*
X51471787Y-124733076D01*
X50562467Y-124902410D02*
X50731800Y-124660505D01*
X50852753Y-124902410D02*
X50852753Y-124394410D01*
X50659229Y-124394410D01*
X50610848Y-124418600D01*
X50586657Y-124442790D01*
X50562467Y-124491171D01*
X50562467Y-124563743D01*
X50586657Y-124612124D01*
X50610848Y-124636314D01*
X50659229Y-124660505D01*
X50852753Y-124660505D01*
X50102848Y-124394410D02*
X50344753Y-124394410D01*
X50368943Y-124636314D01*
X50344753Y-124612124D01*
X50296372Y-124587933D01*
X50175419Y-124587933D01*
X50127038Y-124612124D01*
X50102848Y-124636314D01*
X50078657Y-124684695D01*
X50078657Y-124805648D01*
X50102848Y-124854029D01*
X50127038Y-124878219D01*
X50175419Y-124902410D01*
X50296372Y-124902410D01*
X50344753Y-124878219D01*
X50368943Y-124854029D01*
X51855310Y-118703513D02*
X51613405Y-118534180D01*
X51855310Y-118413227D02*
X51347310Y-118413227D01*
X51347310Y-118606751D01*
X51371500Y-118655132D01*
X51395690Y-118679323D01*
X51444071Y-118703513D01*
X51516643Y-118703513D01*
X51565024Y-118679323D01*
X51589214Y-118655132D01*
X51613405Y-118606751D01*
X51613405Y-118413227D01*
X51565024Y-118993799D02*
X51540833Y-118945418D01*
X51516643Y-118921227D01*
X51468262Y-118897037D01*
X51444071Y-118897037D01*
X51395690Y-118921227D01*
X51371500Y-118945418D01*
X51347310Y-118993799D01*
X51347310Y-119090561D01*
X51371500Y-119138942D01*
X51395690Y-119163132D01*
X51444071Y-119187323D01*
X51468262Y-119187323D01*
X51516643Y-119163132D01*
X51540833Y-119138942D01*
X51565024Y-119090561D01*
X51565024Y-118993799D01*
X51589214Y-118945418D01*
X51613405Y-118921227D01*
X51661786Y-118897037D01*
X51758548Y-118897037D01*
X51806929Y-118921227D01*
X51831119Y-118945418D01*
X51855310Y-118993799D01*
X51855310Y-119090561D01*
X51831119Y-119138942D01*
X51806929Y-119163132D01*
X51758548Y-119187323D01*
X51661786Y-119187323D01*
X51613405Y-119163132D01*
X51589214Y-119138942D01*
X51565024Y-119090561D01*
X53323430Y-118703513D02*
X53081525Y-118534180D01*
X53323430Y-118413227D02*
X52815430Y-118413227D01*
X52815430Y-118606751D01*
X52839620Y-118655132D01*
X52863810Y-118679323D01*
X52912191Y-118703513D01*
X52984763Y-118703513D01*
X53033144Y-118679323D01*
X53057334Y-118655132D01*
X53081525Y-118606751D01*
X53081525Y-118413227D01*
X53323430Y-118945418D02*
X53323430Y-119042180D01*
X53299239Y-119090561D01*
X53275049Y-119114751D01*
X53202477Y-119163132D01*
X53105715Y-119187323D01*
X52912191Y-119187323D01*
X52863810Y-119163132D01*
X52839620Y-119138942D01*
X52815430Y-119090561D01*
X52815430Y-118993799D01*
X52839620Y-118945418D01*
X52863810Y-118921227D01*
X52912191Y-118897037D01*
X53033144Y-118897037D01*
X53081525Y-118921227D01*
X53105715Y-118945418D01*
X53129906Y-118993799D01*
X53129906Y-119090561D01*
X53105715Y-119138942D01*
X53081525Y-119163132D01*
X53033144Y-119187323D01*
X50168750Y-119723988D02*
X49926845Y-119554655D01*
X50168750Y-119433702D02*
X49660750Y-119433702D01*
X49660750Y-119627226D01*
X49684940Y-119675607D01*
X49709130Y-119699798D01*
X49757511Y-119723988D01*
X49830083Y-119723988D01*
X49878464Y-119699798D01*
X49902654Y-119675607D01*
X49926845Y-119627226D01*
X49926845Y-119433702D01*
X50168750Y-120207798D02*
X50168750Y-119917512D01*
X50168750Y-120062655D02*
X49660750Y-120062655D01*
X49733321Y-120014274D01*
X49781702Y-119965893D01*
X49805892Y-119917512D01*
X49660750Y-120522274D02*
X49660750Y-120570655D01*
X49684940Y-120619036D01*
X49709130Y-120643227D01*
X49757511Y-120667417D01*
X49854273Y-120691608D01*
X49975226Y-120691608D01*
X50071988Y-120667417D01*
X50120369Y-120643227D01*
X50144559Y-120619036D01*
X50168750Y-120570655D01*
X50168750Y-120522274D01*
X50144559Y-120473893D01*
X50120369Y-120449703D01*
X50071988Y-120425512D01*
X49975226Y-120401322D01*
X49854273Y-120401322D01*
X49757511Y-120425512D01*
X49709130Y-120449703D01*
X49684940Y-120473893D01*
X49660750Y-120522274D01*
M02*
