M48
INCH,TZ
T1C0.015
T2C0.035
T3C0.040
T4C0.051
T5C0.073
T6C0.120
T7C0.140
T8C0.169
%
G90
G05
T1
X18880Y-43900
X19311Y-39701
X19330Y-41940
X19720Y-46820
X19860Y-44300
X20035Y-44619
X20098Y-47864
X20117Y-43928
X20120Y-42267
X20140Y-43251
X20591Y-47864
X20984Y-47864
X21100Y-44320
X21170Y-49410
X21289Y-40473
X21374Y-47878
X21386Y-48894
X21416Y-46600
X21487Y-45032
X21727Y-47836
X21886Y-39722
X22079Y-41375
X22079Y-45064
X22081Y-46554
X22114Y-42542
X22114Y-43196
X22114Y-43849
X22288Y-39411
X22560Y-47840
X22622Y-39276
X22671Y-45064
X22768Y-42542
X22768Y-43196
X22768Y-43849
X22866Y-41345
X22960Y-38420
X23012Y-39405
X23260Y-45065
X23265Y-46548
X23358Y-39306
X23380Y-47820
X23421Y-42542
X23421Y-43196
X23421Y-43849
X23560Y-48860
X23591Y-38121
X23694Y-39424
X23850Y-45064
X24047Y-41375
X24154Y-39542
X24240Y-46280
X24571Y-43864
X24593Y-43325
X24646Y-28323
X25304Y-40255
X25440Y-43132
X26474Y-42999
X26480Y-34823
X26575Y-42102
X26594Y-45094
X26598Y-44269
X26709Y-43298
X26787Y-42589
X27051Y-43829
X27162Y-44622
X27441Y-26492
X27590Y-35370
X27642Y-40980
X28091Y-29150
X28240Y-35800
X28327Y-31906
X28450Y-36910
X28472Y-33477
X28472Y-34835
X28579Y-40496
X29097Y-36199
X29567Y-36276
X29830Y-33477
X29830Y-34835
X29843Y-35724
X29882Y-26335
X30086Y-43641
X30374Y-36827
X30808Y-34897
X30906Y-32063
X31056Y-35808
X31280Y-33028
X31476Y-34957
X31496Y-26512
X32050Y-25750
X32067Y-32260
X32600Y-41900
X32795Y-25744
X32894Y-26866
X33000Y-41900
X33307Y-39937
X33400Y-41900
X33692Y-42606
X34585Y-41633
X34585Y-43600
X34585Y-42026
X34585Y-42419
X34586Y-42818
X34592Y-43985
X34593Y-43196
X34606Y-46650
X34634Y-44360
X34649Y-44720
X34760Y-45100
X34765Y-45465
X34803Y-31256
X34902Y-45843
X35667Y-39785
X35800Y-31200
X36144Y-46000
X37012Y-42623
X37195Y-41246
X37203Y-40442
X37510Y-42654
X37667Y-41256
X37929Y-48969
X38039Y-47016
X38970Y-41901
T2
X35154Y-38841
T3
X19516Y-30335
X19516Y-31335
X19516Y-32335
X19516Y-33335
X19516Y-34335
X19516Y-35335
X19516Y-36335
X20516Y-30335
X20516Y-31335
X20516Y-32335
X20516Y-33335
X20516Y-34335
X20516Y-35335
X20516Y-36335
X25660Y-30340
X26660Y-30340
X27660Y-30340
X28660Y-30340
X29660Y-30340
X30660Y-30340
X30780Y-49315
X31780Y-49315
X32780Y-49315
X33780Y-49315
X34780Y-49315
X35780Y-49315
T4
X18796Y-49483
X19032Y-47534
X24741Y-47534
X24977Y-49483
T5
X35368Y-33658
X35368Y-35509
X35368Y-37359
X40368Y-34523
X40368Y-36495
T6
X38402Y-28875
X39681Y-30765
T7
X37221Y-30765
T8
X21180Y-26380
X27480Y-48622
X39680Y-26380
T0
M30
