G04 #@! TF.FileFunction,Copper,L4,Bot,Signal*
%FSLAX46Y46*%
G04 Gerber Fmt 4.6, Leading zero omitted, Abs format (unit mm)*
G04 Created by KiCad (PCBNEW (2015-04-17 BZR 5609)-product) date Fri 01 Apr 2016 01:29:39 PM CDT*
%MOMM*%
G01*
G04 APERTURE LIST*
%ADD10C,0.100000*%
%ADD11C,0.900000*%
%ADD12C,2.000000*%
%ADD13R,0.500000X0.600000*%
%ADD14R,0.600000X0.500000*%
%ADD15R,0.800000X0.750000*%
%ADD16R,0.750000X0.800000*%
%ADD17R,0.400000X0.600000*%
%ADD18R,0.600000X0.400000*%
%ADD19R,1.727200X1.727200*%
%ADD20O,1.727200X1.727200*%
%ADD21C,5.000000*%
%ADD22R,1.150000X1.150000*%
%ADD23C,3.800000*%
%ADD24C,3.300000*%
%ADD25R,1.660000X1.660000*%
%ADD26R,1.727200X2.032000*%
%ADD27O,1.727200X2.032000*%
%ADD28C,0.736600*%
%ADD29C,0.762000*%
%ADD30C,0.152400*%
%ADD31C,0.508000*%
%ADD32C,0.203200*%
%ADD33C,0.381000*%
%ADD34C,0.254000*%
G04 APERTURE END LIST*
D10*
D11*
X89291998Y-98655010D03*
D12*
X47742400Y-125687200D03*
X63442400Y-125687200D03*
X48342400Y-120737200D03*
X62842400Y-120737200D03*
D13*
X61080000Y-102777380D03*
X61080000Y-101677380D03*
X56080000Y-116450000D03*
X56080000Y-117550000D03*
X56080000Y-102777380D03*
X56080000Y-101677380D03*
X57585000Y-116450000D03*
X57585000Y-117550000D03*
D14*
X61550000Y-111424720D03*
X60450000Y-111424720D03*
D13*
X59080000Y-116450000D03*
X59080000Y-117550000D03*
X61080000Y-105879720D03*
X61080000Y-106979720D03*
X56080000Y-113580000D03*
X56080000Y-112480000D03*
X56080000Y-105879720D03*
X56080000Y-106979720D03*
X57585000Y-113580000D03*
X57585000Y-112480000D03*
D14*
X65310000Y-111521240D03*
X66410000Y-111521240D03*
D13*
X59080000Y-113580000D03*
X59080000Y-112480000D03*
X54580000Y-116450000D03*
X54580000Y-117550000D03*
D14*
X50019040Y-111467600D03*
X48919040Y-111467600D03*
X50019040Y-109967600D03*
X48919040Y-109967600D03*
D13*
X60580000Y-116450000D03*
X60580000Y-117550000D03*
D14*
X50019040Y-107467600D03*
X48919040Y-107467600D03*
X53194240Y-109967600D03*
X54294240Y-109967600D03*
D13*
X54580000Y-113580000D03*
X54580000Y-112480000D03*
X58080000Y-102777380D03*
X58080000Y-101677380D03*
X60580000Y-113580000D03*
X60580000Y-112480000D03*
D14*
X65310000Y-110220000D03*
X66410000Y-110220000D03*
X53194240Y-111467600D03*
X54294240Y-111467600D03*
X53194240Y-107467600D03*
X54294240Y-107467600D03*
D13*
X58090000Y-105879720D03*
X58090000Y-106979720D03*
D14*
X61550000Y-110220000D03*
X60450000Y-110220000D03*
D15*
X68357180Y-102880160D03*
X66857180Y-102880160D03*
D16*
X58348880Y-124089860D03*
X58348880Y-122589860D03*
X56151780Y-124143200D03*
X56151780Y-122643200D03*
X50215800Y-102450200D03*
X50215800Y-103950200D03*
X47701200Y-102450200D03*
X47701200Y-103950200D03*
D17*
X70162000Y-102870000D03*
X71062000Y-102870000D03*
D18*
X53182900Y-123756080D03*
X53182900Y-122856080D03*
X51968780Y-123748460D03*
X51968780Y-122848460D03*
X50579400Y-123756080D03*
X50579400Y-122856080D03*
X51562000Y-116991980D03*
X51562000Y-117891980D03*
X53065680Y-116999600D03*
X53065680Y-117899600D03*
D13*
X50921920Y-120478640D03*
X50921920Y-119378640D03*
D19*
X52110640Y-92290900D03*
D20*
X49570640Y-92290900D03*
X52110640Y-89750900D03*
X49570640Y-89750900D03*
X52110640Y-87210900D03*
X49570640Y-87210900D03*
X52110640Y-84670900D03*
X49570640Y-84670900D03*
X52110640Y-82130900D03*
X49570640Y-82130900D03*
X52110640Y-79590900D03*
X49570640Y-79590900D03*
X52110640Y-77050900D03*
X49570640Y-77050900D03*
D21*
X53797200Y-67005200D03*
X69800013Y-123500007D03*
X100787200Y-67005200D03*
D22*
X75768280Y-85030800D03*
X72318280Y-85030800D03*
X75768280Y-88480800D03*
X72318280Y-88480800D03*
D23*
X94540200Y-78143100D03*
D24*
X100790200Y-78143100D03*
X97540200Y-73343100D03*
D12*
X89834720Y-90192420D03*
X89834720Y-94892420D03*
X89834720Y-85492420D03*
X102534720Y-87688420D03*
X102534720Y-92696420D03*
D25*
X56170000Y-111377600D03*
X56170000Y-109717600D03*
X56170000Y-108057600D03*
X57830000Y-108057600D03*
X57830000Y-109717600D03*
X57830000Y-111377600D03*
X59490000Y-108057600D03*
X59490000Y-109717600D03*
X59490000Y-111377600D03*
D26*
X78180000Y-125260000D03*
D27*
X80720000Y-125260000D03*
X83260000Y-125260000D03*
X85800000Y-125260000D03*
X88340000Y-125260000D03*
X90880000Y-125260000D03*
D26*
X77876400Y-77063600D03*
D27*
X75336400Y-77063600D03*
X72796400Y-77063600D03*
X70256400Y-77063600D03*
X67716400Y-77063600D03*
X65176400Y-77063600D03*
D28*
X61569600Y-117551200D03*
D29*
X59385200Y-121462800D03*
X57302400Y-121513600D03*
X47955200Y-111506000D03*
X49098190Y-106527600D03*
D28*
X67840343Y-109976179D03*
X90593070Y-101055010D03*
X83300000Y-65390000D03*
X81407000Y-65405000D03*
X79950000Y-88790000D03*
X67259200Y-88450420D03*
X90932000Y-79248000D03*
X87900000Y-118490000D03*
X55591358Y-100892799D03*
X61350000Y-100436910D03*
X55185443Y-121503961D03*
X54396910Y-118364000D03*
X59091898Y-118231128D03*
X56086920Y-118247921D03*
D29*
X53594000Y-112572800D03*
X54289998Y-121610000D03*
D28*
X53300000Y-121574551D03*
X52300000Y-121574551D03*
X51050000Y-121574551D03*
D29*
X50088800Y-118922800D03*
X54576980Y-114382079D03*
X60580000Y-114462608D03*
X56080000Y-114462608D03*
X57585000Y-114462608D03*
X59080000Y-114465651D03*
D28*
X56080000Y-105093069D03*
X61080000Y-105093069D03*
X62410340Y-111414560D03*
D29*
X51096658Y-111577210D03*
X51104059Y-107357990D03*
D28*
X58080000Y-105016860D03*
X62466220Y-110045500D03*
X91805770Y-116840000D03*
X54073270Y-102801420D03*
X59921579Y-96827779D03*
X75100000Y-92140000D03*
D29*
X51155600Y-109857990D03*
X50444400Y-112522000D03*
X50888980Y-113331968D03*
X59842400Y-124104400D03*
D28*
X70210000Y-104090000D03*
D29*
X54320000Y-124190000D03*
D28*
X49050000Y-100840000D03*
X62600000Y-71940000D03*
D29*
X53771800Y-125501400D03*
D28*
X72590000Y-102860000D03*
X98983799Y-106428262D03*
X72263000Y-93751400D03*
X81450000Y-81940000D03*
X94475000Y-104765000D03*
X71350000Y-74040000D03*
D29*
X95675002Y-104790000D03*
D28*
X64272160Y-102247711D03*
X57460000Y-99760000D03*
X56610994Y-100103958D03*
D29*
X88302742Y-115481392D03*
X88290400Y-114553996D03*
D28*
X58450000Y-100088098D03*
D29*
X88009498Y-113589183D03*
D28*
X59328341Y-99836920D03*
D29*
X87971200Y-112674400D03*
D28*
X60181918Y-100136920D03*
D29*
X87864109Y-111722998D03*
D28*
X67500000Y-106940000D03*
D29*
X87846457Y-110745215D03*
D28*
X68040000Y-108176910D03*
D29*
X87867404Y-109718569D03*
D28*
X67242921Y-109217079D03*
D29*
X87849222Y-108758128D03*
D28*
X68710000Y-111326920D03*
D29*
X87847027Y-107744534D03*
D28*
X67560000Y-112443080D03*
D29*
X87846609Y-106745035D03*
D28*
X68991087Y-113339480D03*
D29*
X87844873Y-105747095D03*
D28*
X67550000Y-114538750D03*
X64617600Y-109554910D03*
X76418173Y-110846920D03*
X78251158Y-88638842D03*
X77150000Y-93540000D03*
X70078600Y-89839800D03*
X79450000Y-83890000D03*
X71950000Y-81040000D03*
X78500000Y-81440000D03*
X88400000Y-79390000D03*
D29*
X94495091Y-102723209D03*
D28*
X84600000Y-101440000D03*
X69700000Y-67290000D03*
X75900000Y-66890000D03*
X80000000Y-67340000D03*
X83550000Y-68240000D03*
X85577304Y-108219923D03*
X96340000Y-124380000D03*
X75800000Y-90740000D03*
X78881210Y-90952157D03*
X95275411Y-108341278D03*
X94009525Y-108263681D03*
X84836000Y-106426000D03*
X83820000Y-106426000D03*
X82804000Y-106426000D03*
X96620000Y-119420000D03*
X88650000Y-116440000D03*
X71729600Y-90932000D03*
X58318400Y-97586800D03*
X73905977Y-91946724D03*
D30*
X54580000Y-118165190D02*
X54580000Y-120120000D01*
X59874312Y-117550000D02*
X60580000Y-117550000D01*
X59080000Y-117550000D02*
X59874312Y-117550000D01*
X59874312Y-117550000D02*
X59874312Y-120973688D01*
X59874312Y-120973688D02*
X59385200Y-121462800D01*
X56870883Y-117550000D02*
X57585000Y-117550000D01*
X56080000Y-117550000D02*
X56870883Y-117550000D01*
X56870883Y-117550000D02*
X56870883Y-121082083D01*
X56870883Y-121082083D02*
X57302400Y-121513600D01*
X60580000Y-117550000D02*
X61568400Y-117550000D01*
X61568400Y-117550000D02*
X61569600Y-117551200D01*
X48919040Y-111467600D02*
X47993600Y-111467600D01*
X47993600Y-111467600D02*
X47955200Y-111506000D01*
X48919040Y-107467600D02*
X48919040Y-106706750D01*
X48919040Y-106706750D02*
X49098190Y-106527600D01*
X60450000Y-111424720D02*
X59537120Y-111424720D01*
X59537120Y-111424720D02*
X59490000Y-111377600D01*
X60450000Y-110220000D02*
X59992400Y-110220000D01*
X59992400Y-110220000D02*
X59490000Y-109717600D01*
X66410000Y-111521240D02*
X66410000Y-110220000D01*
X61080000Y-101677380D02*
X61080000Y-100545750D01*
X61080000Y-100545750D02*
X61274960Y-100350790D01*
X58080000Y-101677380D02*
X57677600Y-101677380D01*
X57677600Y-101677380D02*
X56080000Y-101677380D01*
X57830000Y-108057600D02*
X57830000Y-107239720D01*
X57830000Y-107239720D02*
X58090000Y-106979720D01*
X56170000Y-108057600D02*
X56170000Y-107069720D01*
X56170000Y-107069720D02*
X56080000Y-106979720D01*
X56080000Y-112480000D02*
X56080000Y-111467600D01*
X56080000Y-111467600D02*
X56170000Y-111377600D01*
X60580000Y-112480000D02*
X60580000Y-112430000D01*
X60580000Y-112430000D02*
X59527600Y-111377600D01*
X59527600Y-111377600D02*
X59490000Y-111377600D01*
X57585000Y-112480000D02*
X57585000Y-111622600D01*
X57585000Y-111622600D02*
X57830000Y-111377600D01*
X59080000Y-112480000D02*
X59080000Y-111787600D01*
X59080000Y-111787600D02*
X59490000Y-111377600D01*
X56080000Y-112480000D02*
X54580000Y-112480000D01*
X49173040Y-110776538D02*
X49173040Y-110846960D01*
D31*
X81407000Y-65405000D02*
X83312000Y-65405000D01*
D30*
X54580000Y-112480000D02*
X54580000Y-111753360D01*
X54580000Y-111753360D02*
X54294240Y-111467600D01*
X60580000Y-112480000D02*
X60477400Y-112377400D01*
X60477400Y-112377400D02*
X60477400Y-111452120D01*
X60477400Y-111452120D02*
X60450000Y-111424720D01*
X49173040Y-110776538D02*
X49173040Y-111467600D01*
X49173040Y-109967600D02*
X49173040Y-110776538D01*
X59094090Y-117564090D02*
X59080000Y-117550000D01*
X54580000Y-118165190D02*
X54575190Y-118170000D01*
X54580000Y-117550000D02*
X54580000Y-118165190D01*
X66460000Y-111521240D02*
X67840343Y-110140897D01*
X66410000Y-111521240D02*
X66460000Y-111521240D01*
X67840343Y-110140897D02*
X67840343Y-109976179D01*
D32*
X83300000Y-65390000D02*
X81422000Y-65390000D01*
X81422000Y-65390000D02*
X81407000Y-65405000D01*
D30*
X56080000Y-101381441D02*
X55591358Y-100892799D01*
X56080000Y-101677380D02*
X56080000Y-101381441D01*
X61274960Y-100361870D02*
X61350000Y-100436910D01*
X61274960Y-100350790D02*
X61274960Y-100361870D01*
X54580000Y-120120000D02*
X54580000Y-120340000D01*
X54899599Y-121218117D02*
X55185443Y-121503961D01*
X54899599Y-120659599D02*
X54899599Y-121218117D01*
X54580000Y-120340000D02*
X54899599Y-120659599D01*
X54610000Y-117580000D02*
X54580000Y-117550000D01*
X54610000Y-118150910D02*
X54610000Y-117580000D01*
X54396910Y-118364000D02*
X54610000Y-118150910D01*
X53594000Y-112572800D02*
X53594000Y-113111615D01*
X53594000Y-113111615D02*
X53800000Y-113317615D01*
X53800000Y-113317615D02*
X53800000Y-121120002D01*
X53800000Y-121120002D02*
X53908999Y-121229001D01*
X53908999Y-121229001D02*
X54289998Y-121610000D01*
X53300000Y-121574551D02*
X53300000Y-122738980D01*
X53300000Y-122738980D02*
X53182900Y-122856080D01*
X53300000Y-120840000D02*
X53300000Y-121574551D01*
X53065680Y-117899600D02*
X53065680Y-118252000D01*
X53065680Y-118252000D02*
X53300000Y-118486320D01*
X53300000Y-118486320D02*
X53300000Y-120840000D01*
X52811680Y-119565420D02*
X52811680Y-121062871D01*
X52811680Y-121062871D02*
X52300000Y-121574551D01*
X51968780Y-122848460D02*
X51968780Y-121905771D01*
X51968780Y-121905771D02*
X52300000Y-121574551D01*
X51562000Y-118315740D02*
X52811680Y-119565420D01*
X51562000Y-117891980D02*
X51562000Y-118315740D01*
X50921920Y-120478640D02*
X50921920Y-121461920D01*
X50921920Y-121461920D02*
X51050000Y-121590000D01*
X51050000Y-121590000D02*
X51050000Y-121574551D01*
X50579400Y-122856080D02*
X50579400Y-122045151D01*
X50579400Y-122045151D02*
X51050000Y-121574551D01*
X50455920Y-118912640D02*
X50921920Y-119378640D01*
X50078640Y-118912640D02*
X50455920Y-118912640D01*
X56151780Y-122643200D02*
X56151780Y-120845580D01*
X56151780Y-120845580D02*
X55397400Y-120091200D01*
X55397400Y-120091200D02*
X55397400Y-117317400D01*
X55397400Y-117317400D02*
X54580000Y-116500000D01*
X54580000Y-116500000D02*
X54580000Y-116450000D01*
X60580000Y-116500000D02*
X60580000Y-116450000D01*
X54580000Y-114379059D02*
X54580000Y-114484225D01*
X54580000Y-113580000D02*
X54580000Y-114379059D01*
X60580000Y-113580000D02*
X60580000Y-114032400D01*
X60580000Y-114462608D02*
X60580000Y-114363284D01*
X60580000Y-114032400D02*
X60580000Y-114462608D01*
X54576980Y-114382079D02*
X54576980Y-116486940D01*
X54580000Y-114379059D02*
X54576980Y-114382079D01*
X60581540Y-114464148D02*
X60581540Y-116423440D01*
X60580000Y-114462608D02*
X60581540Y-114464148D01*
X59080000Y-113580000D02*
X59080000Y-114465651D01*
X59080000Y-114465651D02*
X59080000Y-114655200D01*
X59080000Y-114655200D02*
X59098180Y-114673380D01*
X59098180Y-114673380D02*
X59098180Y-116474240D01*
X57585000Y-114462608D02*
X57585000Y-113580000D01*
X58430160Y-122579700D02*
X58356500Y-122506040D01*
X58356500Y-122506040D02*
X58356500Y-121953640D01*
X58356500Y-121953640D02*
X58356500Y-119819830D01*
X58356500Y-119938800D02*
X58356500Y-119819830D01*
X58356500Y-119819830D02*
X58356500Y-117223500D01*
X57585000Y-116450000D02*
X56080000Y-116450000D01*
X58356500Y-117223500D02*
X58308500Y-117223500D01*
X58308500Y-117223500D02*
X57585000Y-116500000D01*
X57585000Y-116500000D02*
X57585000Y-116450000D01*
X58356500Y-117223500D02*
X59080000Y-116500000D01*
X59080000Y-116500000D02*
X59080000Y-116450000D01*
X56080000Y-113580000D02*
X56080000Y-114032400D01*
X56080000Y-114544404D02*
X56080000Y-114462608D01*
X56080000Y-114032400D02*
X56080000Y-114544404D01*
X56083200Y-114547604D02*
X56083200Y-116507260D01*
X56080000Y-114544404D02*
X56083200Y-114547604D01*
X57585000Y-116465960D02*
X57581800Y-116469160D01*
X57585000Y-113580000D02*
X57585000Y-116465960D01*
X65310000Y-111521240D02*
X62517020Y-111521240D01*
X62517020Y-111521240D02*
X62410340Y-111414560D01*
X61550000Y-111424720D02*
X62400180Y-111424720D01*
X62400180Y-111424720D02*
X62410340Y-111414560D01*
X61080000Y-102827380D02*
X61080000Y-105024814D01*
X61080000Y-105024814D02*
X61080000Y-105879720D01*
X61080000Y-102777380D02*
X61080000Y-102827380D01*
X56080000Y-105016860D02*
X56080000Y-102591960D01*
X56080000Y-105879720D02*
X56080000Y-105016860D01*
X56098440Y-102614820D02*
X56075580Y-102591960D01*
X66807340Y-102930000D02*
X66857180Y-102880160D01*
X61232620Y-102930000D02*
X66807340Y-102930000D01*
X61080000Y-102777380D02*
X61232620Y-102930000D01*
X51096658Y-111577210D02*
X50974648Y-111455200D01*
X50974648Y-111455200D02*
X50031440Y-111455200D01*
X50031440Y-111455200D02*
X50019040Y-111467600D01*
X53194240Y-111467600D02*
X51206268Y-111467600D01*
X51206268Y-111467600D02*
X51096658Y-111577210D01*
X51104059Y-107357990D02*
X50969249Y-107492800D01*
X50969249Y-107492800D02*
X50044240Y-107492800D01*
X50044240Y-107492800D02*
X50019040Y-107467600D01*
X53194240Y-107467600D02*
X51308200Y-107467600D01*
X51308200Y-107467600D02*
X51231800Y-107391200D01*
X51181068Y-107391200D02*
X51231800Y-107391200D01*
X51104668Y-107467600D02*
X51181068Y-107391200D01*
X61644620Y-110220000D02*
X61645380Y-110220760D01*
X61645380Y-110220760D02*
X62290960Y-110220760D01*
X62290960Y-110220760D02*
X62466220Y-110045500D01*
X62640720Y-110220000D02*
X62466220Y-110045500D01*
X65310000Y-110220000D02*
X62640720Y-110220000D01*
X65312200Y-110220760D02*
X64282320Y-110220760D01*
X58080000Y-104953584D02*
X58080000Y-105869720D01*
X58080000Y-102777380D02*
X58080000Y-104953584D01*
X58080000Y-104953584D02*
X58080000Y-105047553D01*
X58080000Y-105869720D02*
X58090000Y-105879720D01*
X51104668Y-107467600D02*
X53194240Y-107467600D01*
X51096658Y-111467600D02*
X51056608Y-111467600D01*
D31*
X50215800Y-106375200D02*
X51231800Y-107391200D01*
X50215800Y-103950200D02*
X50215800Y-106375200D01*
D30*
X56644239Y-98445761D02*
X54073270Y-101016730D01*
X91810000Y-116780000D02*
X91810000Y-104093579D01*
X91810000Y-104093579D02*
X86162182Y-98445761D01*
X86162182Y-98445761D02*
X56644239Y-98445761D01*
X54073270Y-101016730D02*
X54073270Y-102280566D01*
X54073270Y-102280566D02*
X54073270Y-102801420D01*
X59918600Y-96824800D02*
X70446736Y-96824800D01*
X70446736Y-96824800D02*
X74833498Y-92438038D01*
X74833498Y-92438038D02*
X75112897Y-92158639D01*
X51155600Y-109857990D02*
X51031590Y-109982000D01*
X51031590Y-109982000D02*
X50033440Y-109982000D01*
X50033440Y-109982000D02*
X50019040Y-109967600D01*
D31*
X47701200Y-103950200D02*
X47701200Y-108131200D01*
X47701200Y-108131200D02*
X48650000Y-109080000D01*
X48650000Y-109080000D02*
X50349928Y-109080000D01*
X50349928Y-109080000D02*
X51216808Y-109946880D01*
D30*
X51240838Y-109967600D02*
X51112678Y-109967600D01*
X53194240Y-109967600D02*
X51240838Y-109967600D01*
X50839527Y-112572800D02*
X50495200Y-112572800D01*
X50495200Y-112572800D02*
X50444400Y-112522000D01*
X53030120Y-114610989D02*
X50991931Y-112572800D01*
X53030120Y-116953880D02*
X53030120Y-114610989D01*
X50991931Y-112572800D02*
X50839527Y-112572800D01*
X51562000Y-113893600D02*
X51231799Y-113563399D01*
X51231799Y-113563399D02*
X50952400Y-113284000D01*
X51562000Y-116991980D02*
X51562000Y-113893600D01*
D31*
X59842400Y-124104400D02*
X58363420Y-124104400D01*
X58363420Y-124104400D02*
X58348880Y-124089860D01*
X68357180Y-102880160D02*
X68615560Y-102880160D01*
X70162000Y-102870000D02*
X68367340Y-102870000D01*
X68367340Y-102870000D02*
X68357180Y-102880160D01*
X68357180Y-102880160D02*
X68382180Y-102880160D01*
X68382180Y-102880160D02*
X69572020Y-104070000D01*
X70190000Y-104070000D02*
X70210000Y-104090000D01*
X69572020Y-104070000D02*
X70190000Y-104070000D01*
X56151780Y-124143200D02*
X54366800Y-124143200D01*
X54366800Y-124143200D02*
X54320000Y-124190000D01*
D33*
X47678340Y-102424800D02*
X47678340Y-102399800D01*
X50223420Y-102316280D02*
X50223420Y-102291280D01*
D31*
X50215800Y-102005800D02*
X49050000Y-100840000D01*
X50215800Y-102450200D02*
X50215800Y-102005800D01*
X47701200Y-102188800D02*
X49050000Y-100840000D01*
X47701200Y-102450200D02*
X47701200Y-102188800D01*
D33*
X52468780Y-124198380D02*
X53771800Y-125501400D01*
D30*
X53182900Y-123756080D02*
X51976400Y-123756080D01*
X50579400Y-123756080D02*
X51961160Y-123756080D01*
D31*
X72580000Y-102870000D02*
X72590000Y-102860000D01*
X71062000Y-102870000D02*
X72580000Y-102870000D01*
D33*
X52018860Y-123748460D02*
X52468780Y-124198380D01*
X51968780Y-123748460D02*
X52018860Y-123748460D01*
D30*
X64272160Y-102207060D02*
X64272160Y-102247711D01*
X59497060Y-102207060D02*
X64272160Y-102207060D01*
X57460000Y-100170000D02*
X59497060Y-102207060D01*
X57460000Y-99820000D02*
X57460000Y-100170000D01*
X57460000Y-99801800D02*
X57460000Y-99760000D01*
X57647840Y-99989640D02*
X57460000Y-99801800D01*
X56657240Y-100015040D02*
X56657240Y-99599346D01*
X86015010Y-98750571D02*
X91449311Y-104184872D01*
X56657240Y-99599346D02*
X57506015Y-98750571D01*
X88683741Y-115100393D02*
X88302742Y-115481392D01*
X91449311Y-112334823D02*
X88683741Y-115100393D01*
X91449311Y-104184872D02*
X91449311Y-112334823D01*
X57506015Y-98750571D02*
X86015010Y-98750571D01*
X88671399Y-114172997D02*
X88290400Y-114553996D01*
X91119413Y-104306963D02*
X91119413Y-111724983D01*
X85867830Y-99055380D02*
X91119413Y-104306963D01*
X58961864Y-99055380D02*
X85867830Y-99055380D01*
X58450000Y-100088098D02*
X58450000Y-99567244D01*
X91119413Y-111724983D02*
X88671399Y-114172997D01*
X58450000Y-99567244D02*
X58961864Y-99055380D01*
X87986269Y-113588153D02*
X88240247Y-113588153D01*
X88390497Y-113208184D02*
X88009498Y-113589183D01*
X90764423Y-104424881D02*
X90764423Y-110834258D01*
X59161680Y-100025220D02*
X59826710Y-99360190D01*
X90764423Y-110834258D02*
X88390497Y-113208184D01*
X85699732Y-99360190D02*
X90764423Y-104424881D01*
X59826710Y-99360190D02*
X85699732Y-99360190D01*
X60441185Y-100037950D02*
X60028094Y-100037950D01*
X60639135Y-99840000D02*
X60441185Y-100037950D01*
X85748476Y-99840000D02*
X60639135Y-99840000D01*
X90459614Y-104551138D02*
X85748476Y-99840000D01*
X90459617Y-110352783D02*
X90459617Y-104551145D01*
X87985600Y-112623600D02*
X88188800Y-112623600D01*
X90459617Y-104551145D02*
X90459614Y-104551138D01*
X87971200Y-112674400D02*
X87985600Y-112660000D01*
X88188800Y-112623600D02*
X90459617Y-110352783D01*
X87985600Y-112660000D02*
X87985600Y-112623600D01*
X67553840Y-107129580D02*
X67553840Y-107124646D01*
X67553840Y-107124646D02*
X67533457Y-107104263D01*
X72076660Y-106940000D02*
X67613880Y-106940000D01*
X67613880Y-106940000D02*
X67437000Y-107116880D01*
X76790705Y-102225955D02*
X72076660Y-106940000D01*
X87703363Y-102225955D02*
X76790705Y-102225955D01*
X90154808Y-104677402D02*
X87703363Y-102225955D01*
X90154808Y-109432299D02*
X90154808Y-104677402D01*
X87864109Y-111722998D02*
X90154808Y-109432299D01*
X68268725Y-108405635D02*
X68040000Y-108176910D01*
X71042091Y-108405635D02*
X68268725Y-108405635D01*
X76916961Y-102530765D02*
X71042091Y-108405635D01*
X89849998Y-104803658D02*
X87577107Y-102530765D01*
X89849998Y-108671322D02*
X89849998Y-104803658D01*
X89501980Y-109019340D02*
X89849998Y-108671322D01*
X87577107Y-102530765D02*
X76916961Y-102530765D01*
X89494310Y-109019340D02*
X89501980Y-109019340D01*
X87754410Y-110759240D02*
X89494310Y-109019340D01*
X89545189Y-104929915D02*
X89545189Y-108040784D01*
X87450851Y-102835575D02*
X89545189Y-104929915D01*
X77090071Y-102835575D02*
X87450851Y-102835575D01*
X70883442Y-109042200D02*
X77090071Y-102835575D01*
X67417800Y-109042200D02*
X70883442Y-109042200D01*
X89545189Y-108040784D02*
X87867404Y-109718569D01*
X67242921Y-109217079D02*
X67417800Y-109042200D01*
X67816754Y-111338297D02*
X69018411Y-111338297D01*
X88072758Y-108522603D02*
X87780659Y-108814702D01*
X69018411Y-111338297D02*
X77216327Y-103140385D01*
X89240379Y-105056171D02*
X89240379Y-107354982D01*
X89240379Y-107354982D02*
X88072758Y-108522603D01*
X87324597Y-103140387D02*
X89240379Y-105056171D01*
X77216327Y-103140385D02*
X87324597Y-103140387D01*
X88935569Y-106544431D02*
X87770000Y-107710000D01*
X88935569Y-105182427D02*
X88935569Y-106544431D01*
X87198340Y-103445196D02*
X88935569Y-105182427D01*
X77458218Y-103445196D02*
X87198340Y-103445196D01*
X68523696Y-112379718D02*
X77458218Y-103445196D01*
X67828160Y-112379718D02*
X68523696Y-112379718D01*
X87773369Y-106733340D02*
X88630759Y-105875950D01*
X88630759Y-105875950D02*
X88630759Y-105308683D01*
X69359386Y-112971181D02*
X68991087Y-113339480D01*
X88630759Y-105308683D02*
X87072083Y-103750005D01*
X87072083Y-103750005D02*
X78580562Y-103750005D01*
X78580562Y-103750005D02*
X69359386Y-112971181D01*
X73677598Y-114493040D02*
X82417457Y-105753181D01*
X87305704Y-105753181D02*
X87718795Y-105753181D01*
X82417457Y-105753181D02*
X87305704Y-105753181D01*
X67595710Y-114493040D02*
X68022996Y-114493040D01*
X67550000Y-114538750D02*
X67595710Y-114493040D01*
X68022996Y-114493040D02*
X73677598Y-114493040D01*
X67884040Y-114493040D02*
X68022996Y-114493040D01*
X76124834Y-111140259D02*
X76418173Y-110846920D01*
X76057741Y-111140259D02*
X76124834Y-111140259D01*
X73256160Y-113941840D02*
X76057741Y-111140259D01*
X66893420Y-113941840D02*
X73256160Y-113941840D01*
X65841880Y-112890300D02*
X66893420Y-113941840D01*
X65841880Y-109788958D02*
X65841880Y-112890300D01*
X65585342Y-109532420D02*
X65841880Y-109788958D01*
X64617600Y-109532420D02*
X65585342Y-109532420D01*
X79451200Y-83921600D02*
X83855932Y-83921600D01*
X83855932Y-83921600D02*
X88079767Y-79697765D01*
X88079767Y-79697765D02*
X88359166Y-79418366D01*
D34*
X70144310Y-66888690D02*
X75914970Y-66888690D01*
X80010000Y-67310000D02*
X80264000Y-67056000D01*
X80264000Y-67056000D02*
X82403900Y-67056000D01*
X70101310Y-66888690D02*
X69700000Y-67290000D01*
X70144310Y-66888690D02*
X70101310Y-66888690D01*
D32*
X82403900Y-67093900D02*
X83550000Y-68240000D01*
X82403900Y-67056000D02*
X82403900Y-67093900D01*
D30*
X76092233Y-90932000D02*
X75946030Y-90785797D01*
X96113601Y-124142501D02*
X96393000Y-124421900D01*
X96024996Y-124064996D02*
X96024996Y-124053896D01*
X96340000Y-124380000D02*
X96024996Y-124064996D01*
X96024996Y-124053896D02*
X96113601Y-124142501D01*
X78669053Y-90740000D02*
X78881210Y-90952157D01*
X75800000Y-90740000D02*
X78669053Y-90740000D01*
X95413896Y-124053896D02*
X96024996Y-124053896D01*
X85496400Y-114136400D02*
X95413896Y-124053896D01*
X85496400Y-108254800D02*
X85496400Y-114136400D01*
X94087122Y-108341278D02*
X94009525Y-108263681D01*
X95275411Y-108341278D02*
X94087122Y-108341278D01*
X83260000Y-125107600D02*
X83260000Y-125260000D01*
X83260000Y-108256000D02*
X83260000Y-125107600D01*
X84836000Y-106680000D02*
X83260000Y-108256000D01*
X84836000Y-106426000D02*
X84836000Y-106680000D01*
X80720000Y-124091600D02*
X80720000Y-125260000D01*
X80720000Y-109780000D02*
X80720000Y-124091600D01*
X83820000Y-106680000D02*
X80720000Y-109780000D01*
X83820000Y-106426000D02*
X83820000Y-106680000D01*
X78232000Y-125208000D02*
X78180000Y-125260000D01*
X78232000Y-110998000D02*
X78232000Y-125208000D01*
X82804000Y-106426000D02*
X78232000Y-110998000D01*
X88650000Y-116490000D02*
X88650000Y-116440000D01*
X91590800Y-119430800D02*
X88650000Y-116490000D01*
X96672400Y-119430800D02*
X91590800Y-119430800D01*
X52110640Y-79590900D02*
X63451740Y-90932000D01*
X63451740Y-90932000D02*
X71334469Y-90932000D01*
X71334469Y-90932000D02*
X71729600Y-90932000D01*
X58597799Y-97307401D02*
X58318400Y-97586800D01*
X63958476Y-91946724D02*
X58597799Y-97307401D01*
X73905977Y-91946724D02*
X63958476Y-91946724D01*
D32*
G36*
X54601270Y-112481270D02*
X54581270Y-112481270D01*
X54581270Y-112501270D01*
X54578730Y-112501270D01*
X54578730Y-112481270D01*
X54558730Y-112481270D01*
X54558730Y-112478730D01*
X54578730Y-112478730D01*
X54578730Y-112458730D01*
X54581270Y-112458730D01*
X54581270Y-112478730D01*
X54601270Y-112478730D01*
X54601270Y-112481270D01*
X54601270Y-112481270D01*
G37*
X54601270Y-112481270D02*
X54581270Y-112481270D01*
X54581270Y-112501270D01*
X54578730Y-112501270D01*
X54578730Y-112481270D01*
X54558730Y-112481270D01*
X54558730Y-112478730D01*
X54578730Y-112478730D01*
X54578730Y-112458730D01*
X54581270Y-112458730D01*
X54581270Y-112478730D01*
X54601270Y-112478730D01*
X54601270Y-112481270D01*
G36*
X62030751Y-112040768D02*
X61995361Y-112888528D01*
X61167232Y-112895076D01*
X61185600Y-112850733D01*
X61185600Y-112570170D01*
X61096700Y-112481270D01*
X60581270Y-112481270D01*
X60581270Y-112501270D01*
X60578730Y-112501270D01*
X60578730Y-112481270D01*
X60558730Y-112481270D01*
X60558730Y-112478730D01*
X60578730Y-112478730D01*
X60578730Y-112458730D01*
X60581270Y-112458730D01*
X60581270Y-112478730D01*
X61096700Y-112478730D01*
X61185600Y-112389830D01*
X61185600Y-112109267D01*
X61147249Y-112016680D01*
X61250000Y-112037287D01*
X61850000Y-112037287D01*
X61983304Y-112011422D01*
X61999748Y-112027895D01*
X62030751Y-112040768D01*
X62030751Y-112040768D01*
G37*
X62030751Y-112040768D02*
X61995361Y-112888528D01*
X61167232Y-112895076D01*
X61185600Y-112850733D01*
X61185600Y-112570170D01*
X61096700Y-112481270D01*
X60581270Y-112481270D01*
X60581270Y-112501270D01*
X60578730Y-112501270D01*
X60578730Y-112481270D01*
X60558730Y-112481270D01*
X60558730Y-112478730D01*
X60578730Y-112478730D01*
X60578730Y-112458730D01*
X60581270Y-112458730D01*
X60581270Y-112478730D01*
X61096700Y-112478730D01*
X61185600Y-112389830D01*
X61185600Y-112109267D01*
X61147249Y-112016680D01*
X61250000Y-112037287D01*
X61850000Y-112037287D01*
X61983304Y-112011422D01*
X61999748Y-112027895D01*
X62030751Y-112040768D01*
G36*
X62263657Y-106461741D02*
X62141138Y-109396560D01*
X62056699Y-109431450D01*
X61875321Y-109612511D01*
X61850000Y-109607433D01*
X61685600Y-109607433D01*
X61685600Y-107350453D01*
X61685600Y-107069890D01*
X61596700Y-106980990D01*
X61081270Y-106980990D01*
X61081270Y-107546420D01*
X61170170Y-107635320D01*
X61259267Y-107635320D01*
X61400733Y-107635320D01*
X61531431Y-107581183D01*
X61631463Y-107481151D01*
X61685600Y-107350453D01*
X61685600Y-109607433D01*
X61250000Y-109607433D01*
X61114411Y-109633741D01*
X60995241Y-109712023D01*
X60995110Y-109712216D01*
X60951431Y-109668537D01*
X60820733Y-109614400D01*
X60675600Y-109614400D01*
X60675600Y-108958333D01*
X60675600Y-108816867D01*
X60675600Y-108147770D01*
X60586700Y-108058870D01*
X59491270Y-108058870D01*
X59491270Y-108620900D01*
X59491270Y-109154300D01*
X59491270Y-109716330D01*
X59511270Y-109716330D01*
X59511270Y-109718870D01*
X59491270Y-109718870D01*
X59491270Y-110280900D01*
X59491270Y-110814300D01*
X59491270Y-111376330D01*
X59511270Y-111376330D01*
X59511270Y-111378870D01*
X59491270Y-111378870D01*
X59491270Y-111398870D01*
X59488730Y-111398870D01*
X59488730Y-111378870D01*
X59488730Y-111376330D01*
X59488730Y-110814300D01*
X59488730Y-110280900D01*
X59488730Y-109718870D01*
X59488730Y-109716330D01*
X59488730Y-109154300D01*
X59488730Y-108620900D01*
X59488730Y-108058870D01*
X58926700Y-108058870D01*
X58393300Y-108058870D01*
X57831270Y-108058870D01*
X57831270Y-108620900D01*
X57831270Y-109154300D01*
X57831270Y-109716330D01*
X58393300Y-109716330D01*
X58926700Y-109716330D01*
X59488730Y-109716330D01*
X59488730Y-109718870D01*
X58926700Y-109718870D01*
X58393300Y-109718870D01*
X57831270Y-109718870D01*
X57831270Y-110280900D01*
X57831270Y-110814300D01*
X57831270Y-111376330D01*
X58393300Y-111376330D01*
X58926700Y-111376330D01*
X59488730Y-111376330D01*
X59488730Y-111378870D01*
X58926700Y-111378870D01*
X58393300Y-111378870D01*
X57831270Y-111378870D01*
X57831270Y-111398870D01*
X57828730Y-111398870D01*
X57828730Y-111378870D01*
X57828730Y-111376330D01*
X57828730Y-110814300D01*
X57828730Y-110280900D01*
X57828730Y-109718870D01*
X57828730Y-109716330D01*
X57828730Y-109154300D01*
X57828730Y-108620900D01*
X57828730Y-108058870D01*
X57266700Y-108058870D01*
X56733300Y-108058870D01*
X56171270Y-108058870D01*
X56171270Y-108620900D01*
X56171270Y-109154300D01*
X56171270Y-109716330D01*
X56733300Y-109716330D01*
X57266700Y-109716330D01*
X57828730Y-109716330D01*
X57828730Y-109718870D01*
X57266700Y-109718870D01*
X56733300Y-109718870D01*
X56171270Y-109718870D01*
X56171270Y-110280900D01*
X56171270Y-110814300D01*
X56171270Y-111376330D01*
X56733300Y-111376330D01*
X57266700Y-111376330D01*
X57828730Y-111376330D01*
X57828730Y-111378870D01*
X57266700Y-111378870D01*
X56733300Y-111378870D01*
X56171270Y-111378870D01*
X56171270Y-111398870D01*
X56168730Y-111398870D01*
X56168730Y-111378870D01*
X56168730Y-111376330D01*
X56168730Y-110814300D01*
X56168730Y-110280900D01*
X56168730Y-109718870D01*
X56168730Y-109716330D01*
X56168730Y-109154300D01*
X56168730Y-108620900D01*
X56168730Y-108058870D01*
X55073300Y-108058870D01*
X54984400Y-108147770D01*
X54984400Y-108816867D01*
X54984400Y-108958333D01*
X54984400Y-109627430D01*
X55073300Y-109716330D01*
X56168730Y-109716330D01*
X56168730Y-109718870D01*
X55073300Y-109718870D01*
X54984400Y-109807770D01*
X54984400Y-110476867D01*
X54984400Y-110618333D01*
X54984400Y-111287430D01*
X55073300Y-111376330D01*
X56168730Y-111376330D01*
X56168730Y-111378870D01*
X55073300Y-111378870D01*
X54984400Y-111467770D01*
X54984400Y-111859056D01*
X54929896Y-111836480D01*
X54949840Y-111788333D01*
X54949840Y-111646867D01*
X54949840Y-111557770D01*
X54949840Y-111377430D01*
X54949840Y-111288333D01*
X54949840Y-111146867D01*
X54949840Y-110288333D01*
X54949840Y-110146867D01*
X54949840Y-110057770D01*
X54949840Y-109877430D01*
X54949840Y-109788333D01*
X54949840Y-109646867D01*
X54949840Y-107788333D01*
X54949840Y-107646867D01*
X54949840Y-107557770D01*
X54949840Y-107377430D01*
X54949840Y-107288333D01*
X54949840Y-107146867D01*
X54895703Y-107016169D01*
X54795671Y-106916137D01*
X54664973Y-106862000D01*
X54384410Y-106862000D01*
X54295510Y-106950900D01*
X54295510Y-107466330D01*
X54860940Y-107466330D01*
X54949840Y-107377430D01*
X54949840Y-107557770D01*
X54860940Y-107468870D01*
X54295510Y-107468870D01*
X54295510Y-107984300D01*
X54384410Y-108073200D01*
X54664973Y-108073200D01*
X54795671Y-108019063D01*
X54895703Y-107919031D01*
X54949840Y-107788333D01*
X54949840Y-109646867D01*
X54895703Y-109516169D01*
X54795671Y-109416137D01*
X54664973Y-109362000D01*
X54384410Y-109362000D01*
X54295510Y-109450900D01*
X54295510Y-109966330D01*
X54860940Y-109966330D01*
X54949840Y-109877430D01*
X54949840Y-110057770D01*
X54860940Y-109968870D01*
X54295510Y-109968870D01*
X54295510Y-110484300D01*
X54384410Y-110573200D01*
X54664973Y-110573200D01*
X54795671Y-110519063D01*
X54895703Y-110419031D01*
X54949840Y-110288333D01*
X54949840Y-111146867D01*
X54895703Y-111016169D01*
X54795671Y-110916137D01*
X54664973Y-110862000D01*
X54384410Y-110862000D01*
X54295510Y-110950900D01*
X54295510Y-111466330D01*
X54860940Y-111466330D01*
X54949840Y-111377430D01*
X54949840Y-111557770D01*
X54860940Y-111468870D01*
X54295510Y-111468870D01*
X54295510Y-111488870D01*
X54292970Y-111488870D01*
X54292970Y-111468870D01*
X54272970Y-111468870D01*
X54272970Y-111466330D01*
X54292970Y-111466330D01*
X54292970Y-110950900D01*
X54204070Y-110862000D01*
X53923507Y-110862000D01*
X53833087Y-110899452D01*
X53831425Y-110535058D01*
X53923507Y-110573200D01*
X54204070Y-110573200D01*
X54292970Y-110484300D01*
X54292970Y-109968870D01*
X54272970Y-109968870D01*
X54272970Y-109966330D01*
X54292970Y-109966330D01*
X54292970Y-109450900D01*
X54204070Y-109362000D01*
X53923507Y-109362000D01*
X53826259Y-109402281D01*
X53820001Y-108030326D01*
X53923507Y-108073200D01*
X54204070Y-108073200D01*
X54292970Y-107984300D01*
X54292970Y-107468870D01*
X54272970Y-107468870D01*
X54272970Y-107466330D01*
X54292970Y-107466330D01*
X54292970Y-106950900D01*
X54204070Y-106862000D01*
X53923507Y-106862000D01*
X53814878Y-106906995D01*
X53812904Y-106474111D01*
X55535236Y-106471589D01*
X55528537Y-106478289D01*
X55474400Y-106608987D01*
X55474400Y-106872000D01*
X55410733Y-106872000D01*
X55269267Y-106872000D01*
X55138569Y-106926137D01*
X55038537Y-107026169D01*
X54984400Y-107156867D01*
X54984400Y-107967430D01*
X55073300Y-108056330D01*
X56168730Y-108056330D01*
X56168730Y-108036330D01*
X56171270Y-108036330D01*
X56171270Y-108056330D01*
X56733300Y-108056330D01*
X57266700Y-108056330D01*
X57828730Y-108056330D01*
X57828730Y-108036330D01*
X57831270Y-108036330D01*
X57831270Y-108056330D01*
X58393300Y-108056330D01*
X58926700Y-108056330D01*
X59488730Y-108056330D01*
X59488730Y-106960900D01*
X59399830Y-106872000D01*
X58730733Y-106872000D01*
X58695600Y-106872000D01*
X58695600Y-106608987D01*
X58641463Y-106478289D01*
X58630233Y-106467059D01*
X60542565Y-106464260D01*
X60528537Y-106478289D01*
X60474400Y-106608987D01*
X60474400Y-106889550D01*
X60503601Y-106918751D01*
X60390733Y-106872000D01*
X60249267Y-106872000D01*
X59580170Y-106872000D01*
X59491270Y-106960900D01*
X59491270Y-108056330D01*
X60586700Y-108056330D01*
X60675600Y-107967430D01*
X60675600Y-107600663D01*
X60759267Y-107635320D01*
X60900733Y-107635320D01*
X60989830Y-107635320D01*
X61078730Y-107546420D01*
X61078730Y-106980990D01*
X61058730Y-106980990D01*
X61058730Y-106978450D01*
X61078730Y-106978450D01*
X61078730Y-106958450D01*
X61081270Y-106958450D01*
X61081270Y-106978450D01*
X61596700Y-106978450D01*
X61685600Y-106889550D01*
X61685600Y-106608987D01*
X61631463Y-106478289D01*
X61615863Y-106462689D01*
X62263657Y-106461741D01*
X62263657Y-106461741D01*
G37*
X62263657Y-106461741D02*
X62141138Y-109396560D01*
X62056699Y-109431450D01*
X61875321Y-109612511D01*
X61850000Y-109607433D01*
X61685600Y-109607433D01*
X61685600Y-107350453D01*
X61685600Y-107069890D01*
X61596700Y-106980990D01*
X61081270Y-106980990D01*
X61081270Y-107546420D01*
X61170170Y-107635320D01*
X61259267Y-107635320D01*
X61400733Y-107635320D01*
X61531431Y-107581183D01*
X61631463Y-107481151D01*
X61685600Y-107350453D01*
X61685600Y-109607433D01*
X61250000Y-109607433D01*
X61114411Y-109633741D01*
X60995241Y-109712023D01*
X60995110Y-109712216D01*
X60951431Y-109668537D01*
X60820733Y-109614400D01*
X60675600Y-109614400D01*
X60675600Y-108958333D01*
X60675600Y-108816867D01*
X60675600Y-108147770D01*
X60586700Y-108058870D01*
X59491270Y-108058870D01*
X59491270Y-108620900D01*
X59491270Y-109154300D01*
X59491270Y-109716330D01*
X59511270Y-109716330D01*
X59511270Y-109718870D01*
X59491270Y-109718870D01*
X59491270Y-110280900D01*
X59491270Y-110814300D01*
X59491270Y-111376330D01*
X59511270Y-111376330D01*
X59511270Y-111378870D01*
X59491270Y-111378870D01*
X59491270Y-111398870D01*
X59488730Y-111398870D01*
X59488730Y-111378870D01*
X59488730Y-111376330D01*
X59488730Y-110814300D01*
X59488730Y-110280900D01*
X59488730Y-109718870D01*
X59488730Y-109716330D01*
X59488730Y-109154300D01*
X59488730Y-108620900D01*
X59488730Y-108058870D01*
X58926700Y-108058870D01*
X58393300Y-108058870D01*
X57831270Y-108058870D01*
X57831270Y-108620900D01*
X57831270Y-109154300D01*
X57831270Y-109716330D01*
X58393300Y-109716330D01*
X58926700Y-109716330D01*
X59488730Y-109716330D01*
X59488730Y-109718870D01*
X58926700Y-109718870D01*
X58393300Y-109718870D01*
X57831270Y-109718870D01*
X57831270Y-110280900D01*
X57831270Y-110814300D01*
X57831270Y-111376330D01*
X58393300Y-111376330D01*
X58926700Y-111376330D01*
X59488730Y-111376330D01*
X59488730Y-111378870D01*
X58926700Y-111378870D01*
X58393300Y-111378870D01*
X57831270Y-111378870D01*
X57831270Y-111398870D01*
X57828730Y-111398870D01*
X57828730Y-111378870D01*
X57828730Y-111376330D01*
X57828730Y-110814300D01*
X57828730Y-110280900D01*
X57828730Y-109718870D01*
X57828730Y-109716330D01*
X57828730Y-109154300D01*
X57828730Y-108620900D01*
X57828730Y-108058870D01*
X57266700Y-108058870D01*
X56733300Y-108058870D01*
X56171270Y-108058870D01*
X56171270Y-108620900D01*
X56171270Y-109154300D01*
X56171270Y-109716330D01*
X56733300Y-109716330D01*
X57266700Y-109716330D01*
X57828730Y-109716330D01*
X57828730Y-109718870D01*
X57266700Y-109718870D01*
X56733300Y-109718870D01*
X56171270Y-109718870D01*
X56171270Y-110280900D01*
X56171270Y-110814300D01*
X56171270Y-111376330D01*
X56733300Y-111376330D01*
X57266700Y-111376330D01*
X57828730Y-111376330D01*
X57828730Y-111378870D01*
X57266700Y-111378870D01*
X56733300Y-111378870D01*
X56171270Y-111378870D01*
X56171270Y-111398870D01*
X56168730Y-111398870D01*
X56168730Y-111378870D01*
X56168730Y-111376330D01*
X56168730Y-110814300D01*
X56168730Y-110280900D01*
X56168730Y-109718870D01*
X56168730Y-109716330D01*
X56168730Y-109154300D01*
X56168730Y-108620900D01*
X56168730Y-108058870D01*
X55073300Y-108058870D01*
X54984400Y-108147770D01*
X54984400Y-108816867D01*
X54984400Y-108958333D01*
X54984400Y-109627430D01*
X55073300Y-109716330D01*
X56168730Y-109716330D01*
X56168730Y-109718870D01*
X55073300Y-109718870D01*
X54984400Y-109807770D01*
X54984400Y-110476867D01*
X54984400Y-110618333D01*
X54984400Y-111287430D01*
X55073300Y-111376330D01*
X56168730Y-111376330D01*
X56168730Y-111378870D01*
X55073300Y-111378870D01*
X54984400Y-111467770D01*
X54984400Y-111859056D01*
X54929896Y-111836480D01*
X54949840Y-111788333D01*
X54949840Y-111646867D01*
X54949840Y-111557770D01*
X54949840Y-111377430D01*
X54949840Y-111288333D01*
X54949840Y-111146867D01*
X54949840Y-110288333D01*
X54949840Y-110146867D01*
X54949840Y-110057770D01*
X54949840Y-109877430D01*
X54949840Y-109788333D01*
X54949840Y-109646867D01*
X54949840Y-107788333D01*
X54949840Y-107646867D01*
X54949840Y-107557770D01*
X54949840Y-107377430D01*
X54949840Y-107288333D01*
X54949840Y-107146867D01*
X54895703Y-107016169D01*
X54795671Y-106916137D01*
X54664973Y-106862000D01*
X54384410Y-106862000D01*
X54295510Y-106950900D01*
X54295510Y-107466330D01*
X54860940Y-107466330D01*
X54949840Y-107377430D01*
X54949840Y-107557770D01*
X54860940Y-107468870D01*
X54295510Y-107468870D01*
X54295510Y-107984300D01*
X54384410Y-108073200D01*
X54664973Y-108073200D01*
X54795671Y-108019063D01*
X54895703Y-107919031D01*
X54949840Y-107788333D01*
X54949840Y-109646867D01*
X54895703Y-109516169D01*
X54795671Y-109416137D01*
X54664973Y-109362000D01*
X54384410Y-109362000D01*
X54295510Y-109450900D01*
X54295510Y-109966330D01*
X54860940Y-109966330D01*
X54949840Y-109877430D01*
X54949840Y-110057770D01*
X54860940Y-109968870D01*
X54295510Y-109968870D01*
X54295510Y-110484300D01*
X54384410Y-110573200D01*
X54664973Y-110573200D01*
X54795671Y-110519063D01*
X54895703Y-110419031D01*
X54949840Y-110288333D01*
X54949840Y-111146867D01*
X54895703Y-111016169D01*
X54795671Y-110916137D01*
X54664973Y-110862000D01*
X54384410Y-110862000D01*
X54295510Y-110950900D01*
X54295510Y-111466330D01*
X54860940Y-111466330D01*
X54949840Y-111377430D01*
X54949840Y-111557770D01*
X54860940Y-111468870D01*
X54295510Y-111468870D01*
X54295510Y-111488870D01*
X54292970Y-111488870D01*
X54292970Y-111468870D01*
X54272970Y-111468870D01*
X54272970Y-111466330D01*
X54292970Y-111466330D01*
X54292970Y-110950900D01*
X54204070Y-110862000D01*
X53923507Y-110862000D01*
X53833087Y-110899452D01*
X53831425Y-110535058D01*
X53923507Y-110573200D01*
X54204070Y-110573200D01*
X54292970Y-110484300D01*
X54292970Y-109968870D01*
X54272970Y-109968870D01*
X54272970Y-109966330D01*
X54292970Y-109966330D01*
X54292970Y-109450900D01*
X54204070Y-109362000D01*
X53923507Y-109362000D01*
X53826259Y-109402281D01*
X53820001Y-108030326D01*
X53923507Y-108073200D01*
X54204070Y-108073200D01*
X54292970Y-107984300D01*
X54292970Y-107468870D01*
X54272970Y-107468870D01*
X54272970Y-107466330D01*
X54292970Y-107466330D01*
X54292970Y-106950900D01*
X54204070Y-106862000D01*
X53923507Y-106862000D01*
X53814878Y-106906995D01*
X53812904Y-106474111D01*
X55535236Y-106471589D01*
X55528537Y-106478289D01*
X55474400Y-106608987D01*
X55474400Y-106872000D01*
X55410733Y-106872000D01*
X55269267Y-106872000D01*
X55138569Y-106926137D01*
X55038537Y-107026169D01*
X54984400Y-107156867D01*
X54984400Y-107967430D01*
X55073300Y-108056330D01*
X56168730Y-108056330D01*
X56168730Y-108036330D01*
X56171270Y-108036330D01*
X56171270Y-108056330D01*
X56733300Y-108056330D01*
X57266700Y-108056330D01*
X57828730Y-108056330D01*
X57828730Y-108036330D01*
X57831270Y-108036330D01*
X57831270Y-108056330D01*
X58393300Y-108056330D01*
X58926700Y-108056330D01*
X59488730Y-108056330D01*
X59488730Y-106960900D01*
X59399830Y-106872000D01*
X58730733Y-106872000D01*
X58695600Y-106872000D01*
X58695600Y-106608987D01*
X58641463Y-106478289D01*
X58630233Y-106467059D01*
X60542565Y-106464260D01*
X60528537Y-106478289D01*
X60474400Y-106608987D01*
X60474400Y-106889550D01*
X60503601Y-106918751D01*
X60390733Y-106872000D01*
X60249267Y-106872000D01*
X59580170Y-106872000D01*
X59491270Y-106960900D01*
X59491270Y-108056330D01*
X60586700Y-108056330D01*
X60675600Y-107967430D01*
X60675600Y-107600663D01*
X60759267Y-107635320D01*
X60900733Y-107635320D01*
X60989830Y-107635320D01*
X61078730Y-107546420D01*
X61078730Y-106980990D01*
X61058730Y-106980990D01*
X61058730Y-106978450D01*
X61078730Y-106978450D01*
X61078730Y-106958450D01*
X61081270Y-106958450D01*
X61081270Y-106978450D01*
X61596700Y-106978450D01*
X61685600Y-106889550D01*
X61685600Y-106608987D01*
X61631463Y-106478289D01*
X61615863Y-106462689D01*
X62263657Y-106461741D01*
M02*
